<?xml version="1.0" encoding="utf-8"?>
<!-- Generator: Adobe Illustrator 24.1.1, SVG Export Plug-In . SVG Version: 6.00 Build 0)  -->
<svg version="1.1" id="Capa_1" xmlns="http://www.w3.org/2000/svg" xmlns:xlink="http://www.w3.org/1999/xlink" x="0px" y="0px"
	 viewBox="0 0 1080 1080" style="enable-background:new 0 0 1080 1080;" xml:space="preserve">
<style type="text/css">
	.st0{fill:#1B69A9;}
	.st1{fill:#FFFFFF;}
</style>
<g>
	<circle class="st0" cx="540" cy="540" r="540"/>
	<g>
		<path class="st1" d="M540,1055.25c-284.11,0-515.25-231.14-515.25-515.25C24.75,255.89,255.89,24.75,540,24.75
			S1055.25,255.89,1055.25,540C1055.25,824.11,824.11,1055.25,540,1055.25z M540,61.57C276.19,61.57,61.57,276.19,61.57,540
			S276.19,1018.43,540,1018.43S1018.43,803.81,1018.43,540S803.81,61.57,540,61.57z"/>
	</g>
	<g>
		<path class="st1" d="M450.56,429.21c9.31-8.13,19.53-15.13,31.46-20.28c6.03-2.4,12.62-4.4,20.43-4.03
			c3.89,0.37,8.2,1.22,12.04,3.8c3.94,2.33,6.92,5.91,8.93,9.4c4.04,7.01,5.29,14.22,6.6,19.66c0.27,1.19,0.76,2.64,0.72,2.22
			c-0.06-0.15-0.14-0.46-0.69-1.22c-0.16-0.21-0.82-1.01-1.34-1.36c-0.75-0.63-1.68-1.1-2.77-1.46c-1.17-0.35-2.26-0.43-3.25-0.38
			c-0.96,0.01-2.27,0.54-2.64,0.66c-0.56,0.21-1.1,0.52-1.56,0.89c-0.33,0.25-0.42,0.29-0.62,0.47c-0.42,0.45-0.4,0.39-0.45,0.44
			c-0.08,0.13,0-0.06,0.05-0.17c0.08-0.14,0.3-0.72,0.47-1.11c0.38-1.01,0.78-2.17,1.16-3.47c1.54-5.16,3.03-11.01,4.54-16.91
			c1.62-5.95,3.2-11.89,5.78-18.53c0.73-1.71,1.43-3.37,2.59-5.38c0.25-0.46,0.57-0.98,0.95-1.55c0.4-0.58,0.64-1.01,1.22-1.71
			c0.99-1.2,2.15-2.66,4.74-4.23c0.7-0.4,1.44-0.76,2.18-1.07c0.77-0.31,1.96-0.59,2.96-0.73c2.07-0.37,4.26-0.02,6.3,0.63
			c1.71,0.62,3.13,1.54,4.28,2.44c0.82,0.72,1.71,1.6,2.33,2.36c2.22,2.85,2.91,4.75,3.8,6.73c2.7,7.32,3.78,13.29,4.98,19.46
			l3.07,17.79c0.5,2.86,1.06,5.67,1.67,8.23c0.3,1.25,0.62,2.5,0.94,3.47c0.25,1.03,0.81,1.81,0.27,1.36l-0.29-0.18
			c-0.23-0.2-0.49-0.38-0.77-0.52c-0.37-0.14-1.66-0.78-2.68-0.69c-0.94-0.14-2.26,0.21-2.83,0.53c-0.44,0.12-1.02,0.64-1.13,0.77
			c-0.07,0.05-0.11,0.13-0.12,0.23c0.02,0.03,0.17-0.17,0.26-0.24c0.2-0.1,0.51-0.61,0.8-1.01c1.19-1.82,2.42-4.32,3.55-6.91
			c2.25-5.21,4.28-10.84,6.26-16.49c4.1-11.32,7.67-22.96,12.08-34.5c0.46,12.36-0.26,24.57-1.44,36.9
			c-0.7,6.16-1.55,12.3-3.03,18.62c-0.7,3.17-1.63,6.36-3.18,9.94c-0.45,0.93-0.79,1.79-1.53,2.89c-0.36,0.54-0.6,1-1.08,1.59
			c-0.54,0.64-1.11,1.26-1.71,1.85c-0.66,0.64-1.96,1.46-3.03,2c-1.25,0.6-3.37,1.04-5.04,0.96c-1.74-0.13-3.83-0.77-4.79-1.43
			c-0.6-0.34-1.18-0.73-1.73-1.14c-0.43-0.35-0.73-0.65-1.08-0.99c-2.57-2.69-3.44-4.65-4.34-6.41c-0.89-1.81-1.52-3.43-2.15-5.06
			c-1.18-3.22-2.07-6.29-2.95-9.33c-1.76-6.06-3.09-12-4.58-17.73c-1.44-5.63-2.91-11.57-4.66-15.53c-0.35-0.77-0.89-1.68-0.58-1.2
			c0.13,0.18,0.45,0.56,0.74,0.74c0.54,0.48,1.31,0.97,2.33,1.31c1.3,0.55,2.75,0.55,4.07,0.44c0.64-0.06,1.43-0.33,1.86-0.49
			c0.41-0.13,0.81-0.31,1.18-0.54c1.28-0.8,1.4-1.13,1.46-1.14c0.07-0.14-0.05,0.11-0.08,0.15c-0.05,0.06-0.12,0.18-0.22,0.39
			c-0.37,0.61-0.84,1.75-1.29,2.82c-1.92,4.62-3.56,10.38-5.26,16.07c-1.8,5.76-3.38,11.62-5.79,17.92c-0.59,1.57-1.3,3.23-2.13,5
			c-0.49,0.96-0.87,1.79-1.58,2.94c-0.34,0.54-0.61,1.03-1.16,1.75c-0.5,0.66-0.9,1.23-1.89,2.19c-0.47,0.44-0.81,0.78-1.44,1.25
			c-0.79,0.56-1.65,1.06-2.54,1.46c-0.67,0.37-2.4,0.83-3.72,0.93c-1.37,0.15-2.82,0.03-4.36-0.44c-1.47-0.43-2.7-1.16-3.77-1.97
			c-0.77-0.62-1.77-1.64-2.12-2.18c-1.02-1.36-1.44-2.35-1.8-3.19c-1.21-3.22-1.26-4.78-1.58-6.55c-0.84-6.41-1.31-11.44-2.86-15.27
			c-1.52-3.74-3.22-5.46-7.5-6.81c-4.26-1.07-9.85-0.87-15.42,0.04C473.72,421.12,462.24,425.33,450.56,429.21z"/>
		<path class="st1" d="M619.32,938.22c-25.21,0.09-50.41-0.32-75.64-0.98c-12.62-0.4-25.23-0.96-37.87-1.76
			c-12.7-0.92-25.18-1.65-38.37-4.26c-1.68-0.37-3.36-0.77-5.23-1.41c-0.87-0.25-1.98-0.77-3.01-1.24c-0.65-0.37-1.29-0.77-1.91-1.2
			c-0.35-0.25-0.89-0.79-1.29-1.22c-0.46-0.58-0.73-0.7-1.24-1.73c-1-1.97-1.27-4.29-0.37-6.57c0.34-0.78,0.78-1.51,1.29-2.18
			c0.39-0.47,0.76-0.82,1.17-1.21c1.47-1.25,2.54-1.78,3.54-2.29c1.98-0.96,3.66-1.53,5.34-2.08c6.63-2.11,12.88-3.3,19.19-4.55
			c12.57-2.4,25.05-4.36,37.48-6.38c12.43-2.01,24.82-4,37.07-6.24c12.18-2.26,24.5-4.67,35.58-8.08c2.72-0.85,5.36-1.82,7.47-2.81
			c1.06-0.48,1.97-1.01,2.36-1.31c0.12-0.08,0.21-0.15,0.16-0.15c0,0,0.05-0.04-0.16,0.12c-0.09,0.09-0.24,0.25-0.57,0.67
			c-0.16,0.26-0.61,0.93-0.83,1.66c-0.66,1.5-0.5,4.04-0.03,5.26c0.1,0.32,0.3,0.69,0.41,0.91c0.07,0.18,0.16,0.35,0.27,0.52
			l0.38,0.54c0.22,0.27-0.37-0.24-1.22-0.66c-1.73-0.93-4.29-1.95-6.88-2.85c-10.7-3.61-22.95-6.19-35-8.61
			c-24.32-4.76-49.13-8.51-74.14-12.78c-6.26-1.07-12.55-2.19-18.91-3.43c-6.43-1.29-12.7-2.52-19.85-4.71
			c-1.82-0.57-3.7-1.19-6.08-2.24c-0.59-0.26-1.17-0.52-1.97-0.96l-1.1-0.6c-0.39-0.22-0.98-0.62-1.44-0.93
			c-0.59-0.43-0.77-0.49-1.66-1.26c-0.75-0.65-1.46-1.35-2.11-2.08c-0.99-1.15-2.11-2.9-2.81-4.5c-0.93-2.02-1.59-5.62-1.25-8.3
			c0.22-2.64,1.7-6.15,2.84-7.63c0.96-1.38,2.32-2.82,3.45-3.74c1.42-1.13,3.37-2.26,4.13-2.56l1.56-0.69l1.14-0.41
			c0.8-0.28,1.52-0.51,2.08-0.65c2.54-0.71,4.42-1.03,6.35-1.36c7.39-1.16,13.81-1.62,20.35-2.08c25.82-1.61,50.86-2.07,75.83-3.24
			c12.45-0.56,24.84-1.24,36.95-2.29c6.03-0.54,12.02-1.16,17.69-2.02c2.82-0.43,5.6-0.89,8.13-1.45c2.46-0.54,4.94-1.22,6.1-1.75
			c0.61-0.21,0.77-0.51-0.28,0.21c-0.55,0.43-1.59,1.13-3.05,3.29c-0.37,0.57-0.7,1.17-0.96,1.79c-0.31,0.67-0.7,1.59-0.9,2.44
			c-0.4,1.62-0.7,3.76-0.4,5.76c0.11,0.97,0.27,1.92,0.57,2.86c0.33,0.99,0.69,1.78,0.95,2.36c0.31,0.65,0.7,1.27,1.12,1.84
			c0.3,0.43,0.52,0.74,0.82,1.08c0.72,0.77,0.96,1,1.3,1.29l0.62,0.48c0.4,0.28-0.1-0.05-0.98-0.36c-3.55-1.39-9.71-2.92-15.45-4.25
			c-11.84-2.71-24.44-5.31-36.98-8.33c-25.16-6.06-50.72-13.61-75.4-25.36c-24.52-11.69-48.71-28.05-66.83-51.53
			c-4.5-5.83-8.58-12.05-12.13-18.58c-3.3-6.63-6.69-13.32-8.91-20.38c-4.92-13.98-7.39-28.38-8.73-41.8
			c-1.35-13.48-1.79-25.96-3.03-37.6c-1.19-11.64-3.14-22.39-6.33-32.55c-3.17-10.14-8.06-19.56-13.69-28.75
			c-3.25-4.43-6.02-9-9.69-13.35c-3.57-4.42-7.59-8.97-11.86-13.99c-8.65-10-17.55-22.1-24.23-34.63
			c-6.8-12.49-12.06-25.45-16.23-38.84c-4.15-13.37-6.87-27.11-8.46-40.88c-0.79-6.88-1.28-13.79-1.5-20.62
			c-0.2-6.96-0.23-13.15-0.13-19.98c0.46-27.11,4.65-54.65,13.6-80.87c4.4-13.13,10.12-25.89,16.97-38.03
			c6.7-12.22,14.77-23.71,23.77-34.35c17.91-21.38,40.09-39.25,64.48-52.25c12.1-6.74,24.91-11.82,37.78-16.44
			c13-4.18,26.17-7.72,39.53-10.05c13.36-2.32,26.81-3.79,40.46-4.23c3.42-0.09,6.86-0.15,10.32-0.08
			c3.52,0.03,7.11,0.24,10.52,0.47c6.86,0.53,13.61,1.29,20.3,2.31c26.72,4.03,52.75,11.91,77.34,23.4
			c24.47,11.7,47.15,27.64,66.3,47.04c38.64,38.68,61.64,91.28,65.99,144.5c1.09,13.33,1.24,26.79-0.08,40.25
			c-1.27,13.36-3.7,26.44-7.11,39.26c-3.37,12.83-7.78,25.36-13.18,37.44c-5.44,12.07-11.55,23.75-19.39,34.87
			c-7.64,11.19-17.76,21.08-27.2,29.34c-9.4,8.26-17.66,16.4-24.99,25.97c-14.86,18.63-23.55,41.49-29.58,65.48
			c-6.21,23.98-9.08,49.08-15.49,73.91c-1.71,6.18-3.73,12.34-6.48,18.25c-2.75,5.88-6.32,11.59-11.26,16.05
			c-4.99,4.35-11.27,7.29-17.78,7.78c-6.51,0.48-12.84-1.1-18.66-3.45c6.02,1.79,12.39,2.69,18.43,1.63
			c6.02-1.01,11.48-4.2,15.6-8.46c8.14-8.93,11.27-21.3,13.6-33.31c4.37-24.39,5.45-49.71,9.99-74.96
			c2.18-12.64,5.17-25.3,9.64-37.67c4.32-12.33,10.62-24.5,18.04-35.35c7.32-10.94,16.5-21.13,25.5-30.03
			c8.94-8.89,16.45-17.26,22.48-27.29c6.1-9.87,11.33-20.79,15.67-31.91c4.35-11.13,7.77-22.61,10.25-34.28
			c2.51-11.65,4.11-23.5,4.67-35.26c0.59-11.66-0.11-23.47-1.63-35.17c-3.26-23.36-9.77-46.3-20.2-67.16
			c-10.21-20.97-24.35-39.83-41.1-55.69c-33.48-31.91-78.6-50.41-124.82-56.67c-5.77-0.76-11.56-1.29-17.25-1.61
			c-2.87-0.12-5.57-0.24-8.35-0.2c-2.82,0-5.69,0.12-8.55,0.25c-11.51,0.61-23.12,2.12-34.52,4.35
			c-11.42,2.23-22.54,5.51-33.43,9.24c-10.71,4.14-21.32,8.56-31.1,14.33c-19.73,11.2-37.39,25.52-51.61,42.93
			c-7.15,8.64-13.56,17.92-18.84,27.84c-5.42,9.83-9.96,20.2-13.43,30.98c-7.19,21.5-10.71,44.34-11.01,67.55
			c-0.07,5.76-0.02,12.16,0.17,17.78c0.2,5.75,0.63,11.41,1.3,17.03c1.33,11.23,3.6,22.28,6.91,32.96
			c3.26,10.65,7.5,21.15,12.71,30.79c5.19,9.7,11.21,18.05,18.96,27.14c3.87,4.59,8.17,9.48,12.51,14.87
			c4.42,5.31,8.33,11.46,12.42,17.25c7.52,12.23,14.23,25.37,18.42,39.36c4.25,13.92,6.54,28.1,7.76,41.51
			c1.26,13.42,1.58,26.13,2.64,37.71c1.04,11.62,2.87,22.22,6.21,32.04c0.82,2.46,1.58,4.95,2.75,7.24c1.1,2.33,1.98,4.77,3.19,7.05
			c2.37,4.58,5.12,8.99,8.22,13.19c12.38,16.86,30.58,30.27,51.14,40.58c20.62,10.37,43.46,17.79,67.09,23.97
			c11.87,3.12,23.88,5.85,36.53,9.02c3.18,0.81,6.39,1.65,9.76,2.62c3.39,1,6.83,2.03,11,3.76c2.04,0.86,4.39,1.9,7.44,3.89
			c0.8,0.55,1.49,0.99,2.52,1.87c0.94,0.79,1.8,1.52,3,2.91c0.56,0.65,1.05,1.24,1.59,1.98c0.62,0.91,1.2,1.88,1.71,2.87
			c0.49,0.91,0.98,2.07,1.39,3.45c0.39,1.31,0.71,2.64,0.86,4c0.27,2.78,0.08,5.73-0.63,8.09c-0.33,1.21-0.78,2.53-1.26,3.56
			c-0.46,0.96-0.99,1.9-1.57,2.81c-2.29,3.49-4.53,5.26-6.34,6.62c-3.62,2.54-6.33,3.59-8.67,4.47c-4.73,1.7-8.41,2.42-12.12,3.13
			c-3.66,0.67-7.11,1.12-10.52,1.51c-6.81,0.78-13.37,1.22-19.9,1.59c-13.01,0.68-25.79,0.93-38.5,1.07
			c-25.36,0.31-50.69-0.07-75.18,0.63c-6.03,0.2-12.2,0.5-17.27,1.12c-1.19,0.15-2.41,0.35-2.91,0.48c-0.2,0.03-0.23,0.05-0.18,0.03
			c0,0,0-0.02,0.03-0.03c0.17-0.06,0.33-0.13,0.49-0.21c0,0,1.34-0.67,2.09-1.38c0.85-0.65,1.96-1.79,2.65-2.88
			c0.9-1.18,2.32-4.26,2.39-6.55c0.38-2.3-0.25-5.49-1.05-7.15c-0.48-1.27-1.41-2.67-2.17-3.51c-0.37-0.46-0.8-0.89-1.26-1.27
			l-0.71-0.56l-0.46-0.28l-0.06-0.04c-0.12-0.04,0.02,0.03,0.14,0.09c0.48,0.25,1.57,0.7,2.74,1.1c4.84,1.66,10.86,3.2,16.72,4.67
			c5.94,1.45,11.99,2.82,18.08,4.17c24.41,5.38,49.21,10.33,74.07,16.43c12.48,3.16,24.84,6.27,37.8,11.31
			c3.28,1.34,6.57,2.73,10.29,4.96c1.86,1.17,3.89,2.47,6.29,5.01c0.62,0.71,1.17,1.29,1.86,2.38c0.32,0.49,0.62,1,0.91,1.51
			c0.3,0.56,0.61,1.32,0.85,2c0.52,1.29,0.84,3.09,0.89,4.83c0.03,1.67-0.31,3.6-0.82,5.03c-0.53,1.45-1.26,2.86-1.92,3.73
			c-0.74,1.09-1.42,1.83-2.08,2.47c-0.72,0.75-1.31,1.19-1.92,1.68c-0.65,0.52-1.2,0.88-1.75,1.23c-2.24,1.42-4.17,2.29-6.01,3.03
			c-3.68,1.47-7.06,2.4-10.4,3.25c-13.23,3.18-25.83,4.78-38.51,6.37c-12.65,1.53-25.23,2.77-37.76,4.03
			c-12.52,1.26-25.03,2.46-37.32,4.05c-6.1,0.8-12.3,1.71-17.8,2.99c-1.34,0.32-2.68,0.7-3.56,1.05c-0.43,0.15-0.76,0.37-0.5,0.12
			c0.13-0.11,0.2-0.21,0.33-0.39c0.3-0.34,0.53-0.74,0.67-1.18c0.59-1.51,0.5-3.08-0.18-4.3c-0.43-0.64-0.3-0.54-0.53-0.81
			c-0.12-0.16-0.43-0.37-0.46-0.39c0.04,0,0.06,0.03,0.07,0.08c0.4,0.18,0.68,0.42,1.31,0.65c1.08,0.47,2.43,0.92,3.8,1.32
			c11.34,3.15,24,4.93,36.31,6.7c12.41,1.72,24.9,3.15,37.39,4.54C569.15,933.46,594.24,935.74,619.32,938.22z"/>
		<path class="st1" d="M557.2,516.91c-4.59,19.74-8.17,39.83-10.47,59.98c-2.29,20.13-3.26,40.37-1.92,60.28
			c0.71,9.94,1.87,19.82,3.99,29.44c2.12,9.62,5.08,18.93,8.62,28.09c3.58,9.12,7.8,18.21,13.66,26.53
			c5.82,8.37,13.07,15.77,21.02,23.46c-5.44-1.11-10.69-3.05-15.69-5.56c-2.51-1.24-4.89-2.71-7.26-4.24
			c-2.41-1.48-4.81-3.02-7.03-4.8c-9.14-6.8-17.55-15.1-24.25-24.62c-6.75-9.5-11.77-20.06-15.81-30.83
			c-4.02-10.79-7.1-21.84-9.34-32.99c-4.48-22.31-6.05-44.88-5.72-67.24c0.37-22.37,2.63-44.58,6.7-66.54
			c3.5-19.12,15.51-31.05,25.84-30.38c7.84,0.51,13.36,8.18,14.6,9.9C563.18,499.93,557.82,515.21,557.2,516.91z"/>
	</g>
</g>
<g>
</g>
<g>
</g>
<g>
</g>
<g>
</g>
<g>
</g>
<g>
</g>
<g>
</g>
<g>
</g>
<g>
</g>
<g>
</g>
<g>
</g>
<g>
</g>
<g>
</g>
<g>
</g>
<g>
</g>
</svg>
