<svg width="775" height="834" viewBox="0 0 775 834" fill="none" xmlns="http://www.w3.org/2000/svg">
<g clip-path="url(#clip0)">
<path d="M449.31 120.34C449.31 136.82 449.12 153.34 449.37 169.79C449.61 185.79 456.96 198.21 470.21 206.66C486.4 216.98 503.01 215.81 518.88 205.76C532.88 196.92 539.06 183.49 539.16 167.23C539.3 143.89 539.16 120.55 539.16 97.23C539.16 89.47 539.16 89.42 546.07 92.56C578.405 107.239 608.605 126.225 635.85 149C669.362 177.07 697.905 210.586 720.28 248.14C745.141 289.696 761.894 335.59 769.65 383.39C772.523 401.255 774.144 419.299 774.5 437.39C776.629 529.156 745.922 618.666 687.91 689.8C653.093 732.928 609.375 768.032 559.745 792.711C510.114 817.391 455.741 831.066 400.34 832.8C305.271 836.115 212.337 804.143 139.43 743.04C109.451 718.061 83.4265 688.689 62.24 655.92C27.9268 603.061 7.08163 542.602 1.52605 479.828C-4.02953 417.054 5.87361 353.874 30.37 295.81C68.7838 205.007 140.191 132.141 230.2 91.9C230.47 91.78 230.73 91.65 231 91.54C235.12 89.72 235.74 90.07 235.75 94.71C235.79 118.343 235.79 141.977 235.75 165.61C235.75 170.13 235.7 174.67 236.98 179.07C242.19 196.95 253.4 209.07 271.87 212.72C296.18 217.54 320.28 201.37 324.87 177.06C325.443 173.903 325.717 170.699 325.69 167.49C325.69 135.537 325.69 103.587 325.69 71.64C325.69 70.32 325.69 69.01 325.69 67.7C325.8 63.84 326.12 63.36 329.77 62.82C341.31 61.1067 352.903 59.8967 364.55 59.19C375.49 58.52 386.42 58.25 397.35 58.59C413.385 59.0255 429.379 60.4448 445.24 62.84C448.78 63.38 449.24 63.91 449.24 68.26C449.24 80.36 449.24 92.47 449.24 104.58V120.34H449.31ZM387.52 237.28H181C161.75 237.28 142.49 237.35 123.24 237.22C121.731 237.134 120.226 237.446 118.877 238.125C117.527 238.804 116.379 239.827 115.55 241.09C103.52 257.068 123.7 331.77 114.603 349.582C100.367 377.41 115.949 349.393 110 380.08C108.09 389.93 114.603 409.95 114.663 420.1C114.783 441.84 110.22 449.77 110 471.5C109.945 482 108.01 507.19 110 517.5C120.237 574.203 87.1784 616.294 123.7 660.86C129.58 668.08 127.3 667 136.42 667C303.58 667 470.747 667 637.92 667C639.23 667 640.55 666.89 641.85 667C644.95 667.3 647.03 665.88 648.94 663.57C678.606 627.901 700.72 586.58 713.94 542.11C721.531 516.648 726.033 490.366 727.35 463.83C728.277 446.346 727.842 428.817 726.05 411.4C724.374 394.859 721.51 378.46 717.48 362.33C710.336 334.007 699.528 306.737 685.33 281.21C677.394 266.933 668.461 253.232 658.6 240.21C657.04 238.15 655.32 237.05 652.72 237.26C651.27 237.37 649.81 237.26 648.35 237.26L387.52 237.28Z" fill="#314584"/>
<path d="M522.11 98.56C522.11 121.3 522.11 144.043 522.11 166.79C522.11 183.21 511.78 194.79 495.45 196.39C485.56 197.39 477.91 193.03 472.01 185.39C467.902 180.006 465.76 173.379 465.94 166.61C465.94 141.83 465.94 117.047 465.94 92.26C465.94 71.4134 465.94 50.5667 465.94 29.72C465.94 20.11 469.29 11.95 477.22 6.23002C486 1.85966e-05 495.59 -2.23998 505.62 2.70002C516 7.81002 521.82 16.48 522 28.15C522.29 44.15 522.07 60.22 522.08 76.26L522.11 98.56Z" fill="#314584"/>
<path d="M308.61 98.29C308.61 121.49 308.4 144.69 308.69 167.88C308.86 182.49 297.46 196.29 279.59 196.57C271.76 196.69 265.28 193.05 260.06 187.23C254.5 181.01 252.51 173.54 252.45 165.42C252.45 158.71 252.45 152 252.45 145.29C252.45 108.53 252.45 71.7667 252.45 35C252.428 31.499 252.612 27.9996 253 24.52C255.2 5.35004 278.7 -6.42996 295 4.18004C303.59 9.77004 308.57 17.76 308.61 28.27C308.66 51.61 308.61 75 308.61 98.29Z" fill="#314584"/>
<path d="M181.013 552.98C181.013 543.07 181.013 533.16 181.013 523.25C181.013 518.93 181.423 518.49 185.803 518.48C205.483 518.44 225.15 518.44 244.803 518.48C249.043 518.48 249.643 519.1 249.653 523.31C249.693 543.13 249.693 562.95 249.653 582.77C249.653 586.91 249.023 587.53 244.743 587.54C225.063 587.587 205.397 587.587 185.743 587.54C181.413 587.54 181.033 587.07 181.013 582.7C180.983 572.8 181.013 562.89 181.013 552.98Z" fill="#314584"/>
<path d="M295.692 552.75C295.692 542.98 295.692 533.22 295.692 523.45C295.692 518.86 296.072 518.45 300.692 518.45C320.219 518.45 339.752 518.45 359.292 518.45C363.972 518.45 364.292 518.84 364.292 523.45C364.292 543.13 364.292 562.797 364.292 582.45C364.292 586.95 363.792 587.52 359.292 587.53C339.766 587.577 320.232 587.577 300.692 587.53C296.152 587.53 295.692 586.96 295.692 582.53C295.672 572.53 295.692 562.62 295.692 552.75Z" fill="#314584"/>
<path d="M478.962 552.71C478.962 562.62 478.962 572.53 478.962 582.44C478.962 587.12 478.602 587.54 474.072 587.55C454.546 587.597 435.016 587.597 415.482 587.55C410.772 587.55 410.302 587.01 410.292 582.16C410.292 562.78 410.292 543.4 410.292 524.02C410.294 523.001 410.35 521.983 410.462 520.97C410.491 520.377 410.737 519.815 411.154 519.393C411.571 518.97 412.13 518.716 412.722 518.68C414.023 518.528 415.332 518.452 416.642 518.45H472.642C479.002 518.45 479.022 518.45 479.022 524.72C478.996 534.047 478.976 543.377 478.962 552.71Z" fill="#314584"/>
<path d="M181.006 331.29C181.006 321.53 181.006 311.76 181.006 302C181.006 297.3 181.286 297 186.006 297C205.526 297 225.049 297 244.576 297C249.296 297 249.696 297.35 249.706 301.86C249.746 321.533 249.746 341.2 249.706 360.86C249.706 365.18 249.226 365.65 244.926 365.66C225.252 365.66 205.586 365.66 185.926 365.66C181.386 365.66 181.076 365.27 181.056 360.55C180.976 350.81 181.006 341.05 181.006 331.29Z" fill="#314584"/>
<path d="M295.744 331.24C295.744 321.48 295.744 311.71 295.744 301.95C295.744 297.31 296.064 297.01 300.744 297C320.271 297 339.798 297 359.325 297C364.075 297 364.394 297.3 364.404 301.88C364.404 321.547 364.404 341.213 364.404 360.88C364.404 365.21 363.975 365.64 359.615 365.65C339.948 365.65 320.281 365.65 300.615 365.65C296.095 365.65 295.764 365.26 295.744 360.51C295.724 350.77 295.744 341.03 295.744 331.24Z" fill="#314584"/>
<path d="M444.794 297C454.554 297 464.314 297 474.074 297C478.754 297 479.024 297.28 479.074 302C479.074 321.533 479.074 341.06 479.074 360.58C479.074 365.39 478.764 365.69 473.764 365.69C454.384 365.69 435.004 365.69 415.624 365.69C410.774 365.69 410.414 365.33 410.404 360.45C410.404 341.07 410.404 321.69 410.404 302.31C410.404 301.58 410.404 300.86 410.464 300.13C410.524 297.96 411.684 297.01 413.804 297.02C417.004 297.02 420.214 297.02 423.424 297.02L444.794 297Z" fill="#314584"/>
<path d="M559.424 297.031C569.184 297.031 578.954 297.031 588.714 297.031C593.434 297.031 593.714 297.341 593.714 301.931C593.754 321.611 593.754 341.278 593.714 360.931C593.714 365.241 593.284 365.661 588.904 365.671C569.224 365.671 549.558 365.671 529.904 365.671C525.504 365.671 525.084 365.251 525.074 360.951C525.074 341.271 525.074 321.604 525.074 301.951C525.074 297.341 525.404 297.051 530.074 297.031C539.894 296.961 549.664 297.031 559.424 297.031Z" fill="#314584"/>
<path d="M215 476.38C205.37 476.38 195.75 476.38 186.13 476.38C181.27 476.38 181 476.08 181 471.1C181 451.72 181 432.333 181 412.94C181 412.21 181 411.48 181 410.75C181 408.83 181.89 407.75 183.89 407.75C184.89 407.75 185.89 407.69 186.95 407.69H244.68C249.28 407.77 249.68 408.05 249.68 412.74C249.68 432.267 249.68 451.8 249.68 471.34C249.68 476.12 249.32 476.41 244.31 476.43C234.53 476.4 224.76 476.38 215 476.38Z" fill="#314584"/>
<path d="M330.04 407.701C339.81 407.701 349.58 407.701 359.35 407.701C364.06 407.701 364.35 408.011 364.35 412.621C364.35 432.301 364.35 451.984 364.35 471.671C364.35 476.011 363.94 476.411 359.56 476.421C339.873 476.421 320.187 476.421 300.5 476.421C296.1 476.421 295.69 476.021 295.68 471.701C295.68 451.867 295.68 432.037 295.68 412.211C295.68 408.111 296.1 407.731 300.24 407.711C310.21 407.671 320.12 407.701 330.04 407.701Z" fill="#314584"/>
<path d="M479.04 442.26C479.04 452.03 479.04 461.8 479.04 471.56C479.04 476.02 478.68 476.41 474.37 476.42C454.55 476.46 434.727 476.46 414.9 476.42C410.9 476.42 410.39 475.94 410.38 471.81C410.34 451.99 410.34 432.167 410.38 412.34C410.38 408.16 410.83 407.73 414.87 407.72C434.69 407.68 454.517 407.68 474.35 407.72C478.7 407.72 479.02 408.07 479.04 412.52C479.07 422.44 479.04 432.35 479.04 442.26Z" fill="#314584"/>
<path d="M593.783 442.55C593.783 452.17 593.783 461.79 593.783 471.42C593.783 476.09 593.433 476.42 588.783 476.42C569.243 476.42 549.703 476.42 530.163 476.42C525.353 476.42 525.063 476.1 525.053 471.1C525.053 451.707 525.053 432.313 525.053 412.92C525.053 412.05 525.053 411.17 525.143 410.3C525.132 409.97 525.189 409.64 525.309 409.332C525.429 409.024 525.611 408.744 525.843 408.508C526.075 408.272 526.352 408.086 526.658 407.961C526.964 407.836 527.293 407.774 527.623 407.78C528.783 407.71 529.953 407.69 531.113 407.69H587.543C588.133 407.69 588.713 407.69 589.293 407.69C593.293 407.81 593.713 408.14 593.733 412.33C593.813 422.42 593.783 432.49 593.783 442.55Z" fill="#314584"/>
<rect x="88" y="218" width="45" height="454" fill="#314584"/>
<rect x="647" y="223" width="45" height="454" fill="#314584"/>
<rect x="692" y="287" width="38" height="311" fill="#314584"/>
</g>
<defs>
<clipPath id="clip0">
<rect width="774.61" height="833.06" fill="white"/>
</clipPath>
</defs>
</svg>
