<svg width="538" height="538" viewBox="0 0 538 538" fill="none" xmlns="http://www.w3.org/2000/svg">
<g clip-path="url(#clip0)">
<path d="M269 1.94984e-06C416.3 -0.559998 538.34 120.2 538 269.56C537.62 416.5 418.06 537.78 269 537.8C119.09 537.81 -0.63 415 -2.31666e-07 267.64C0.64 120.46 121.27 -0.519998 269 1.94984e-06ZM32.44 249.57C31.97 398.36 137.38 504.24 266.44 505.57C398.51 507 506 399.54 505.61 269C505.42 203.88 482.22 147.76 436.33 101.72C390.44 55.68 334.18 33 269.18 32C204.08 32.92 147.83 55.6 101.76 101.68C55.69 147.76 33.15 203.87 32.44 249.57Z" fill="#314584"/>
<path d="M101 418.46C101.116 414.586 102.524 410.862 105 407.88C106.4 406.09 106.44 406.07 105 404.27C100.647 399.043 96.57 393.61 92.77 387.97C82.0635 372.191 73.5428 355.035 67.44 336.97C62.6877 323.027 59.4621 308.609 57.82 293.97C57.67 292.62 57.49 291.27 57.37 289.92C57.09 286.97 56.88 286.74 53.97 286.33C49.9893 285.919 46.3124 284.014 43.68 281C38.87 275.41 37.83 269 40.33 262.16C42.69 255.69 47.57 252.16 54.33 251.16C56.92 250.76 57.05 250.67 57.33 248.1C59.5685 224.319 65.8627 201.097 75.94 179.44C83.5544 163.022 93.2253 147.639 104.72 133.66C106.35 131.66 106.79 131.97 104.72 129.28C102.262 126.176 100.968 122.308 101.065 118.349C101.162 114.39 102.643 110.591 105.25 107.61C111.09 100.76 119.83 98.88 127.25 102.92C128.221 103.479 129.15 104.108 130.03 104.8C131.81 106.12 131.81 106.16 133.61 104.68C137.817 101.227 142.15 97.9367 146.61 94.81C172.915 76.2251 203.115 63.8916 234.91 58.75C239.316 57.9718 243.758 57.4177 248.22 57.09C248.556 57.0802 248.89 57.0434 249.22 56.98C250.98 56.66 251.22 56.49 251.38 54.71C251.646 51.6655 252.701 48.7429 254.44 46.23C256.864 42.9542 260.314 40.5837 264.241 39.4963C268.168 38.409 272.347 38.6672 276.11 40.23C282.24 42.78 285.73 47.41 286.74 53.96C287.15 56.65 287.37 56.81 290.04 57.05C300.714 58.0266 311.291 59.8626 321.67 62.54C349.119 69.5218 374.892 81.929 397.47 99.03C399.96 100.9 402.35 102.92 404.8 104.84C406.41 106.1 406.42 106.08 408.01 104.84C411.027 102.281 414.835 100.844 418.79 100.77C422.982 100.829 427.033 102.297 430.289 104.938C433.545 107.58 435.817 111.24 436.74 115.33C437.91 120.75 436.46 125.45 433.11 129.69C431.75 131.42 431.69 131.42 433.11 133.19C440.699 142.386 447.513 152.197 453.48 162.52C464.461 181.559 472.397 202.199 477 223.69C478.827 232.035 480.11 240.489 480.84 249C480.99 250.75 481.11 250.88 483.07 251.1C489.66 251.83 494.45 255.1 497.26 261.1C501.98 271.18 496.58 283.15 486.14 285.89C485.22 286.13 484.25 286.2 483.3 286.35C481.3 286.66 481 286.98 480.82 288.9C479.632 301.807 477.245 314.576 473.69 327.04C467.056 350.406 456.44 372.453 442.31 392.21C439.38 396.32 436.31 400.29 433.1 404.21C431.67 405.97 431.66 406 433.1 407.87C437.4 413.52 438.45 419.64 435.26 426.09C431.99 432.7 426.53 436.45 419.1 436.79C415.212 436.9 411.42 435.58 408.44 433.08C406.26 431.35 406.26 431.38 404.22 433.08C376.421 455.982 343.255 471.439 307.84 478C301.63 479.17 295.38 480 289.1 480.64C287.1 480.85 287.1 480.84 286.72 482.89C286.546 484.477 286.211 486.041 285.72 487.56C284.727 490.242 283.063 492.625 280.887 494.48C278.711 496.336 276.095 497.603 273.29 498.16C269.462 499.155 265.411 498.845 261.78 497.278C258.148 495.711 255.143 492.978 253.24 489.51C252.157 487.359 251.479 485.027 251.24 482.63C251.03 480.85 250.99 480.83 249.19 480.63C207.076 476.738 167.089 460.338 134.37 433.54C134.06 433.28 133.77 433.01 133.45 432.78C131.81 431.58 131.96 431.04 129.89 432.78C120.67 440.45 108.65 436.2 103.63 427.78C101.904 424.978 100.994 421.751 101 418.46V418.46Z" fill="#E6E6E6"/>
<path d="M351.65 302.58C352.37 302.58 353.09 302.58 353.81 302.48C356.628 302.281 359.316 301.212 361.501 299.421C363.686 297.63 365.262 295.205 366.01 292.48C368.29 283.33 363.08 275.19 355.16 273.53C344.99 271.39 334.89 268.92 324.76 266.61C310.03 263.24 295.31 259.84 280.57 256.54C279.559 256.349 278.597 255.958 277.739 255.392C276.88 254.825 276.143 254.094 275.57 253.24C270.57 246.24 265.43 239.24 260.33 232.29C244.27 210.35 228.213 188.41 212.16 166.47C210.822 164.475 209.232 162.66 207.43 161.07C203.19 157.62 198.5 156.24 193.12 158.07C183.86 161.14 180.28 173.54 185.87 180.74C194.74 192.17 203.07 204.02 211.62 215.74C220.873 228.407 230.123 241.057 239.37 253.69C244.89 261.25 250.393 268.817 255.88 276.39C258.646 280.379 262.844 283.148 267.6 284.12C270.34 284.71 273.09 285.25 275.81 285.87C298.41 291.043 321.007 296.213 343.6 301.38C346.26 301.92 348.88 302.78 351.65 302.58Z" fill="#314584"/>
<path d="M119.05 428.79C120.296 428.844 121.538 428.622 122.688 428.14C123.837 427.658 124.866 426.927 125.7 426C136.787 414.893 147.887 403.793 159 392.7C160.344 391.475 161.262 389.854 161.622 388.072C161.981 386.29 161.764 384.44 161 382.79C160.346 380.965 159.183 379.366 157.648 378.182C156.113 376.998 154.271 376.279 152.34 376.11C149.13 375.75 146.64 377.26 144.46 379.45L125.8 398.11C121.11 402.81 116.37 407.46 111.74 412.23C108.85 415.23 108.06 418.79 109.84 422.61C110.586 424.439 111.861 426.005 113.502 427.106C115.142 428.207 117.074 428.793 119.05 428.79V428.79Z" fill="#314584"/>
<path d="M428.91 119.27C428.91 112.27 422.22 107.21 416.07 109.27C414.273 109.974 412.669 111.095 411.39 112.54L380 143.91C379.55 144.36 379.09 144.81 378.67 145.3C377.494 146.519 376.696 148.053 376.375 149.717C376.054 151.38 376.222 153.101 376.86 154.67C377.426 156.351 378.426 157.852 379.759 159.021C381.092 160.191 382.71 160.987 384.45 161.33C386.017 161.684 387.651 161.612 389.18 161.121C390.71 160.63 392.081 159.739 393.15 158.54C403.97 147.653 414.823 136.79 425.71 125.95C426.11 125.55 426.5 125.15 426.86 124.72C428.21 123.229 428.943 121.281 428.91 119.27Z" fill="#314584"/>
<path d="M79.81 278.54H102.13C103.13 278.54 104.05 278.54 105.01 278.46C106.782 278.336 108.455 277.597 109.74 276.37C111.286 274.895 112.343 272.982 112.769 270.889C113.194 268.795 112.968 266.621 112.12 264.66C110.73 261.1 107.54 259.07 103.2 259H58.33C57.5305 258.96 56.7295 258.96 55.93 259C53.502 259.082 51.2049 260.121 49.54 261.89C48.1519 263.61 47.3141 265.708 47.1358 267.911C46.9574 270.114 47.4467 272.319 48.54 274.24C49.3165 275.605 50.4572 276.727 51.8346 277.481C53.212 278.235 54.7718 278.591 56.34 278.51C64.14 278.51 72 278.54 79.81 278.54Z" fill="#314584"/>
<path d="M151.3 161.54C153.234 161.59 155.141 161.079 156.79 160.067C158.439 159.055 159.759 157.587 160.59 155.84C161.499 154.261 161.891 152.438 161.712 150.625C161.533 148.812 160.791 147.1 159.59 145.73C158.989 144.982 158.345 144.271 157.66 143.6C147.46 133.36 137.24 123.123 127 112.89C126.105 111.977 125.135 111.141 124.1 110.39C123.206 109.705 122.177 109.216 121.081 108.956C119.985 108.696 118.847 108.67 117.74 108.88C115.79 109.204 113.971 110.072 112.494 111.385C111.017 112.698 109.94 114.402 109.39 116.3C108.16 120.09 109.48 123.16 112.2 125.84C117.04 130.62 121.82 135.45 126.63 140.26C132.743 146.373 138.85 152.483 144.95 158.59C145.745 159.496 146.721 160.227 147.814 160.735C148.907 161.242 150.095 161.517 151.3 161.54V161.54Z" fill="#314584"/>
<path d="M428.91 418.86C428.91 415.86 428.17 414.08 425.57 411.46C419.483 405.34 413.38 399.233 407.26 393.14C402.56 388.44 397.88 383.74 393.17 379.07C387.41 373.36 380.04 376.5 377.17 382.13C375.27 385.92 375.99 389.61 379.17 392.86C385.937 399.66 392.72 406.447 399.52 413.22C403.84 417.46 408.103 421.72 412.31 426C413.506 427.307 415.061 428.233 416.78 428.66C418.238 428.943 419.741 428.904 421.183 428.545C422.624 428.186 423.97 427.517 425.126 426.583C426.281 425.65 427.219 424.474 427.873 423.14C428.526 421.806 428.88 420.345 428.91 418.86V418.86Z" fill="#314584"/>
<path d="M278.66 79.82C278.66 71.98 278.56 64.14 278.66 56.31C278.76 50.31 273.83 46.37 267.84 46.91C263.12 47.33 260.07 50.25 259.31 54.91C259.149 56.0159 259.072 57.1324 259.08 58.25C259.08 72.65 259.08 87.0467 259.08 101.44C259.083 102.557 259.157 103.672 259.3 104.78C259.444 106.47 260.093 108.078 261.163 109.394C262.233 110.711 263.675 111.674 265.3 112.16C267.026 112.837 268.905 113.027 270.732 112.71C272.559 112.392 274.263 111.579 275.66 110.36C276.657 109.498 277.441 108.419 277.953 107.205C278.465 105.991 278.689 104.675 278.61 103.36C278.64 95.5 278.66 87.66 278.66 79.82Z" fill="#314584"/>
<path d="M278.67 457.85C278.67 450.17 278.67 442.503 278.67 434.85C278.752 433.409 278.555 431.966 278.09 430.6C275.92 425.14 269.43 423.88 264.67 425.81C263.436 426.288 262.337 427.058 261.466 428.054C260.595 429.051 259.979 430.243 259.67 431.53C259.3 433.004 259.129 434.521 259.16 436.04C259.16 450.593 259.16 465.147 259.16 479.7C259.143 481.059 259.267 482.416 259.53 483.75C259.759 484.934 260.246 486.053 260.957 487.028C261.667 488.003 262.583 488.809 263.64 489.39C268.99 492.51 279.01 490.68 278.76 480.91C278.51 473.2 278.67 465.52 278.67 457.85Z" fill="#314584"/>
<path d="M457.93 278.54H480.93C482.37 278.615 483.811 278.421 485.18 277.97C492.18 275.31 492.07 265.48 488.18 261.77C487.106 260.693 485.784 259.897 484.33 259.45C483.025 259.11 481.678 258.956 480.33 258.99H458.27C450.44 258.99 442.6 258.99 434.77 258.99C429.6 258.99 426.17 261.88 425.27 266.73C424.47 271.02 426.13 275.23 429.38 277.24C431.06 278.187 432.975 278.634 434.9 278.53C442.58 278.53 450.25 278.54 457.93 278.54Z" fill="#314584"/>
</g>
<defs>
<clipPath id="clip0">
<rect width="537.98" height="537.8" fill="white"/>
</clipPath>
</defs>
</svg>
