<svg width="538" height="538" viewBox="0 0 538 538" fill="none" xmlns="http://www.w3.org/2000/svg">
<g clip-path="url(#clip0)">
<path d="M268.7 537.4C120.54 537.4 0 416.86 0 268.7C0 120.54 120.54 0 268.7 0C416.86 0 537.4 120.54 537.4 268.7C537.4 416.86 416.87 537.4 268.7 537.4ZM268.7 31.69C138.01 31.69 31.7 138.01 31.7 268.69C31.7 399.37 138.02 505.69 268.7 505.69C399.38 505.69 505.7 399.36 505.7 268.69C505.7 138.02 399.39 31.69 268.7 31.69V31.69Z" fill="#314584"/>
<path d="M244.62 107V64.28H292.54V106C346.28 112 381.39 137.543 397.87 182.63L319.75 207.09C311.75 185.957 295.44 175.39 270.82 175.39C250.193 175.39 239.877 182.057 239.87 195.39C239.838 197.701 240.287 199.994 241.189 202.122C242.091 204.249 243.427 206.166 245.11 207.75C248.61 211.163 258.26 214.63 274.06 218.15C310.147 226.05 336.017 233.117 351.67 239.35C367.323 245.583 380.35 256.133 390.75 271C401.15 285.88 406.353 303.46 406.36 323.74C406.36 352.173 396.25 375.99 376.03 395.19C355.81 414.39 327.98 425.987 292.54 429.98V473.16H244.62V429.94C184.38 422.793 146.523 391.097 131.05 334.85L218.41 318.62C225.903 344.247 244.79 357.06 275.07 357.06C298.69 357.06 310.503 350.57 310.51 337.59C310.622 334.441 309.923 331.315 308.48 328.514C307.037 325.712 304.899 323.328 302.27 321.59C296.777 317.757 287.043 314.423 273.07 311.59C218.17 300.39 183.353 286.143 168.62 268.85C153.887 251.557 146.52 231.683 146.52 209.23C146.52 184.443 154.59 162.443 170.73 143.23C186.87 124.017 211.5 111.94 244.62 107Z" fill="#314584"/>
</g>
<defs>
<clipPath id="clip0">
<rect width="537.4" height="537.4" fill="white"/>
</clipPath>
</defs>
</svg>
