<svg width="386" height="167" viewBox="0 0 386 167" fill="none" xmlns="http://www.w3.org/2000/svg">
<g clip-path="url(#clip0_1_2)">
<path d="M93.5 89C113.106 89 129 73.1061 129 53.5C129 33.8939 113.106 18 93.5 18C73.8939 18 58 33.8939 58 53.5C58 73.1061 73.8939 89 93.5 89Z" fill="#E4E4E4"/>
<path d="M93.5 83C109.792 83 123 69.7924 123 53.5C123 37.2076 109.792 24 93.5 24C77.2076 24 64 37.2076 64 53.5C64 69.7924 77.2076 83 93.5 83Z" fill="#314584"/>
<path d="M188 89C207.882 89 224 73.1061 224 53.5C224 33.8939 207.882 18 188 18C168.118 18 152 33.8939 152 53.5C152 73.1061 168.118 89 188 89Z" fill="#E4E4E4"/>
<path d="M217.5 53.5C217.5 69.5084 204.3 82.5 188 82.5C171.7 82.5 158.5 69.5084 158.5 53.5C158.5 37.4916 171.7 24.5 188 24.5C204.3 24.5 217.5 37.4916 217.5 53.5Z" fill="white" stroke="#314584"/>
<path d="M282.5 89C302.106 89 318 73.1061 318 53.5C318 33.8939 302.106 18 282.5 18C262.894 18 247 33.8939 247 53.5C247 73.1061 262.894 89 282.5 89Z" fill="#E4E4E4"/>
<path d="M311.5 53.5C311.5 69.5163 298.516 82.5 282.5 82.5C266.484 82.5 253.5 69.5163 253.5 53.5C253.5 37.4837 266.484 24.5 282.5 24.5C298.516 24.5 311.5 37.4837 311.5 53.5Z" fill="white" stroke="#314584"/>
<path d="M90.9921 65C90.9379 65 90.8835 64.9987 90.8291 64.9961C90.349 64.9733 89.8796 64.8483 89.453 64.6297C89.0265 64.4111 88.6529 64.1041 88.358 63.7298L83.7013 57.8246C83.159 57.1355 82.9161 56.2623 83.0258 55.3967C83.1355 54.5311 83.5888 53.7437 84.2863 53.2073L84.4538 53.0787C85.1526 52.5439 86.038 52.3043 86.9157 52.4125C87.7934 52.5207 88.5917 52.9678 89.1356 53.6557C89.3981 53.9885 89.7304 54.2615 90.1097 54.4559C90.4891 54.6504 90.9065 54.7617 91.3335 54.7822C91.7605 54.8027 92.187 54.732 92.5837 54.5749C92.9804 54.4178 93.338 54.178 93.6321 53.8719L103.088 44.0275C103.389 43.7138 103.75 43.4617 104.15 43.2856C104.55 43.1095 104.981 43.0129 105.419 43.0012C105.857 42.9895 106.293 43.0631 106.703 43.2176C107.112 43.3722 107.486 43.6047 107.804 43.9019L107.958 44.0461C108.601 44.6463 108.975 45.4736 108.999 46.3459C109.023 47.2182 108.694 48.0641 108.086 48.6976L93.4133 63.9725C93.1017 64.2971 92.7264 64.5557 92.3101 64.7324C91.8938 64.909 91.4453 65.0001 90.9921 65V65Z" fill="white"/>
<path d="M223.386 52.0958H181.973V16.0861C182.016 13.8564 182.941 11.7346 184.545 10.1858C186.15 8.63702 188.304 7.78761 190.534 7.82379H204.3C214.824 7.82379 223.386 16.087 223.386 26.2437V52.0958Z" fill="#2F2E41"/>
<path d="M175.747 109.851L170.617 142.55L219.353 143.19L212.94 111.774L175.747 109.851Z" fill="#FFB6B6"/>
<path d="M172.032 134.565L156.509 175.889L154.585 347.143H167.731L199.153 209.55L228.01 343.551H240.835L231.858 192.88C231.858 192.88 234.505 162.639 220.956 144.794L217.658 135.267L172.032 134.565Z" fill="#2F2E41"/>
<path d="M238.613 166.78C237.256 166.41 235.997 165.747 234.924 164.838C233.85 163.929 232.99 162.796 232.402 161.518C231.814 160.241 231.514 158.85 231.522 157.444C231.53 156.038 231.847 154.65 232.449 153.38L211.716 85.7965L226.966 82.7741L245.928 149.02C247.996 150.173 249.569 152.044 250.349 154.28C251.129 156.515 251.062 158.959 250.161 161.148C249.259 163.337 247.585 165.12 245.457 166.158C243.329 167.196 240.894 167.417 238.613 166.78H238.613Z" fill="#FFB6B6"/>
<path d="M211.175 127.909L177.58 127.261C176.62 127.24 175.693 126.906 174.941 126.308C174.189 125.711 173.654 124.883 173.417 123.953C171.616 116.823 167.654 98.2434 169.755 79.7378C170.17 76.1528 171.3 72.6875 173.078 69.5467C174.856 66.406 177.245 63.6537 180.106 61.4526C182.966 59.2515 186.239 57.6464 189.731 56.7322C193.223 55.818 196.862 55.6133 200.435 56.1302C204.203 56.6696 207.815 57.9995 211.033 60.0327C214.251 62.0659 217.003 64.7564 219.108 67.9277C221.212 71.099 222.623 74.6794 223.247 78.4341C223.87 82.1888 223.693 86.0329 222.726 89.7142C218.497 105.771 216.108 117.258 215.626 123.857C215.555 124.811 215.173 125.715 214.539 126.432C213.905 127.149 213.054 127.639 212.116 127.826V127.826C211.837 127.882 211.553 127.91 211.269 127.91C211.237 127.91 211.206 127.91 211.175 127.909Z" fill="#E4E4E4"/>
<path d="M109.128 68.5451C109.33 68.9977 109.495 69.4654 109.624 69.944L151.675 84.2309L159.801 77.1336L172.116 87.9944L158.953 101.956C157.889 103.084 156.489 103.837 154.961 104.101C153.433 104.366 151.861 104.127 150.481 103.422L105.483 80.4415C103.856 81.4395 101.963 81.9185 100.057 81.8148C98.1508 81.7111 96.3213 81.0297 94.812 79.8611C93.3026 78.6925 92.1849 77.0922 91.6074 75.2729C91.0299 73.4537 91.0201 71.5018 91.5792 69.6768C92.1384 67.8519 93.24 66.2404 94.7375 65.0567C96.235 63.8729 98.0575 63.1731 99.9625 63.0502C101.868 62.9274 103.765 63.3873 105.402 64.3689C107.039 65.3505 108.339 66.8071 109.128 68.5451V68.5451Z" fill="#FFB6B6"/>
<path d="M151.762 81.9525C151.765 81.3735 151.894 80.802 152.138 80.277C152.382 79.7521 152.737 79.286 153.178 78.9106L168.575 65.7972C170.524 63.5647 173.278 62.196 176.235 61.9912C179.191 61.7865 182.108 62.7624 184.346 64.705C186.583 66.6477 187.959 69.3983 188.171 72.3537C188.383 75.3091 187.414 78.228 185.477 80.4701L174.512 97.5414C174.199 98.0286 173.785 98.4426 173.298 98.7552C172.81 99.0679 172.261 99.2718 171.688 99.3532C171.114 99.4345 170.53 99.3914 169.975 99.2267C169.42 99.062 168.907 98.7795 168.47 98.3987L153.141 85.0118C152.704 84.6311 152.355 84.1607 152.117 83.6327C151.879 83.1047 151.758 82.5316 151.762 81.9525V81.9525Z" fill="#E4E4E4"/>
<path d="M210.787 102.916C210.274 102.646 209.826 102.269 209.472 101.811C209.119 101.352 208.868 100.823 208.738 100.258L204.186 80.5545C203.102 77.7973 203.155 74.7228 204.335 72.005C205.514 69.2872 207.724 67.1481 210.479 66.0567C213.234 64.9654 216.309 65.0108 219.03 66.1831C221.751 67.3553 223.897 69.5588 224.996 72.3102L235.103 89.9026C235.391 90.4047 235.568 90.963 235.621 91.5396C235.675 92.1161 235.603 92.6974 235.411 93.2437C235.219 93.7901 234.912 94.2886 234.51 94.7055C234.108 95.1224 233.621 95.4478 233.082 95.6595L214.138 103.101C213.599 103.313 213.021 103.406 212.442 103.374C211.864 103.342 211.299 103.186 210.787 102.916Z" fill="#E4E4E4"/>
<path d="M227.084 11.3425C228.64 7.70169 225.965 3.06921 221.109 0.995569C216.254 -1.07808 211.057 0.192359 209.502 3.83319C207.946 7.47403 210.621 12.1065 215.476 14.1802C220.332 16.2538 225.529 14.9834 227.084 11.3425Z" fill="#2F2E41"/>
<path d="M212.022 38.4053C217.217 28.9053 213.725 16.9941 204.223 11.8009C194.721 6.60771 182.808 10.0991 177.614 19.5991C172.42 29.0992 175.912 41.0104 185.413 46.2036C194.915 51.3967 206.828 47.9053 212.022 38.4053Z" fill="#FFB6B6"/>
<path d="M205.574 6.54977H183.147C181.503 6.5285 179.911 7.12951 178.692 8.23228C177.472 9.33504 176.715 10.858 176.571 12.4958C176.513 13.3661 176.635 14.2391 176.928 15.0606C177.221 15.8821 177.68 16.6347 178.276 17.2716C178.872 17.9086 179.592 18.4164 180.393 18.7636C181.193 19.1107 182.056 19.2899 182.929 19.2899V19.2899C184.618 19.2899 186.239 19.961 187.434 21.1557C188.629 22.3503 189.3 23.9705 189.3 25.66V51.7773H224.341V25.3139C224.341 22.8497 223.856 20.4097 222.913 18.1332C221.97 15.8566 220.587 13.7881 218.844 12.0457C217.102 10.3032 215.033 8.92108 212.756 7.9781C210.479 7.03512 208.038 6.54977 205.574 6.54977V6.54977Z" fill="#2F2E41"/>
<path d="M10.8672 108V99.4688H13.3867C14.1406 99.4688 14.8086 99.6367 15.3906 99.9727C15.9766 100.309 16.4297 100.785 16.75 101.402C17.0703 102.02 17.2305 102.727 17.2305 103.523V103.951C17.2305 104.76 17.0684 105.471 16.7441 106.084C16.4238 106.697 15.9648 107.17 15.3672 107.502C14.7734 107.834 14.0918 108 13.3223 108H10.8672ZM12.3496 100.664V106.816H13.3164C14.0938 106.816 14.6895 106.574 15.1035 106.09C15.5215 105.602 15.7344 104.902 15.7422 103.992V103.518C15.7422 102.592 15.541 101.885 15.1387 101.396C14.7363 100.908 14.1523 100.664 13.3867 100.664H12.3496ZM23.6934 104.191H20.1895V106.816H24.2852V108H18.707V99.4688H24.2441V100.664H20.1895V103.02H23.6934V104.191ZM25.4922 108V99.4688H28.416C29.3809 99.4688 30.1152 99.6621 30.6191 100.049C31.123 100.436 31.375 101.012 31.375 101.777C31.375 102.168 31.2695 102.52 31.0586 102.832C30.8477 103.145 30.5391 103.387 30.1328 103.559C30.5938 103.684 30.9492 103.92 31.1992 104.268C31.4531 104.611 31.5801 105.025 31.5801 105.51C31.5801 106.311 31.3223 106.926 30.8066 107.355C30.2949 107.785 29.5605 108 28.6035 108H25.4922ZM26.9746 104.15V106.816H28.6211C29.0859 106.816 29.4492 106.701 29.7109 106.471C29.9727 106.24 30.1035 105.92 30.1035 105.51C30.1035 104.623 29.6504 104.17 28.7441 104.15H26.9746ZM26.9746 103.061H28.4277C28.8887 103.061 29.248 102.957 29.5059 102.75C29.7676 102.539 29.8984 102.242 29.8984 101.859C29.8984 101.438 29.7773 101.133 29.5352 100.945C29.2969 100.758 28.9238 100.664 28.416 100.664H26.9746V103.061ZM38.0488 104.191H34.5449V106.816H38.6406V108H33.0625V99.4688H38.5996V100.664H34.5449V103.02H38.0488V104.191ZM44.3066 105.803C44.3066 105.428 44.1738 105.139 43.9082 104.936C43.6465 104.732 43.1719 104.527 42.4844 104.32C41.7969 104.113 41.25 103.883 40.8438 103.629C40.0664 103.141 39.6777 102.504 39.6777 101.719C39.6777 101.031 39.957 100.465 40.5156 100.02C41.0781 99.5742 41.8066 99.3516 42.7012 99.3516C43.2949 99.3516 43.8242 99.4609 44.2891 99.6797C44.7539 99.8984 45.1191 100.211 45.3848 100.617C45.6504 101.02 45.7832 101.467 45.7832 101.959H44.3066C44.3066 101.514 44.166 101.166 43.8848 100.916C43.6074 100.662 43.209 100.535 42.6895 100.535C42.2051 100.535 41.8281 100.639 41.5586 100.846C41.293 101.053 41.1602 101.342 41.1602 101.713C41.1602 102.025 41.3047 102.287 41.5938 102.498C41.8828 102.705 42.3594 102.908 43.0234 103.107C43.6875 103.303 44.2207 103.527 44.623 103.781C45.0254 104.031 45.3203 104.32 45.5078 104.648C45.6953 104.973 45.7891 105.354 45.7891 105.791C45.7891 106.502 45.5156 107.068 44.9688 107.49C44.4258 107.908 43.6875 108.117 42.7539 108.117C42.1367 108.117 41.5684 108.004 41.0488 107.777C40.5332 107.547 40.1309 107.23 39.8418 106.828C39.5566 106.426 39.4141 105.957 39.4141 105.422H40.8965C40.8965 105.906 41.0566 106.281 41.377 106.547C41.6973 106.812 42.1562 106.945 42.7539 106.945C43.2695 106.945 43.6562 106.842 43.9141 106.635C44.1758 106.424 44.3066 106.146 44.3066 105.803ZM50.0781 108V99.4688H52.5977C53.3516 99.4688 54.0195 99.6367 54.6016 99.9727C55.1875 100.309 55.6406 100.785 55.9609 101.402C56.2812 102.02 56.4414 102.727 56.4414 103.523V103.951C56.4414 104.76 56.2793 105.471 55.9551 106.084C55.6348 106.697 55.1758 107.17 54.5781 107.502C53.9844 107.834 53.3027 108 52.5332 108H50.0781ZM51.5605 100.664V106.816H52.5273C53.3047 106.816 53.9004 106.574 54.3145 106.09C54.7324 105.602 54.9453 104.902 54.9531 103.992V103.518C54.9531 102.592 54.752 101.885 54.3496 101.396C53.9473 100.908 53.3633 100.664 52.5977 100.664H51.5605ZM62.9043 104.191H59.4004V106.816H63.4961V108H57.918V99.4688H63.4551V100.664H59.4004V103.02H62.9043V104.191ZM72.6777 104.191H69.1738V106.816H73.2695V108H67.6914V99.4688H73.2285V100.664H69.1738V103.02H72.6777V104.191ZM78.9355 105.803C78.9355 105.428 78.8027 105.139 78.5371 104.936C78.2754 104.732 77.8008 104.527 77.1133 104.32C76.4258 104.113 75.8789 103.883 75.4727 103.629C74.6953 103.141 74.3066 102.504 74.3066 101.719C74.3066 101.031 74.5859 100.465 75.1445 100.02C75.707 99.5742 76.4355 99.3516 77.3301 99.3516C77.9238 99.3516 78.4531 99.4609 78.918 99.6797C79.3828 99.8984 79.748 100.211 80.0137 100.617C80.2793 101.02 80.4121 101.467 80.4121 101.959H78.9355C78.9355 101.514 78.7949 101.166 78.5137 100.916C78.2363 100.662 77.8379 100.535 77.3184 100.535C76.834 100.535 76.457 100.639 76.1875 100.846C75.9219 101.053 75.7891 101.342 75.7891 101.713C75.7891 102.025 75.9336 102.287 76.2227 102.498C76.5117 102.705 76.9883 102.908 77.6523 103.107C78.3164 103.303 78.8496 103.527 79.252 103.781C79.6543 104.031 79.9492 104.32 80.1367 104.648C80.3242 104.973 80.418 105.354 80.418 105.791C80.418 106.502 80.1445 107.068 79.5977 107.49C79.0547 107.908 78.3164 108.117 77.3828 108.117C76.7656 108.117 76.1973 108.004 75.6777 107.777C75.1621 107.547 74.7598 107.23 74.4707 106.828C74.1855 106.426 74.043 105.957 74.043 105.422H75.5254C75.5254 105.906 75.6855 106.281 76.0059 106.547C76.3262 106.812 76.7852 106.945 77.3828 106.945C77.8984 106.945 78.2852 106.842 78.543 106.635C78.8047 106.424 78.9355 106.146 78.9355 105.803ZM87.8828 100.664H85.2227V108H83.752V100.664H81.1152V99.4688H87.8828V100.664ZM93.0801 106.014H89.7754L89.084 108H87.543L90.7656 99.4688H92.0957L95.3242 108H93.7773L93.0801 106.014ZM90.1914 104.818H92.6641L91.4277 101.279L90.1914 104.818ZM99.4316 104.713H97.7793V108H96.2969V99.4688H99.2969C100.281 99.4688 101.041 99.6895 101.576 100.131C102.111 100.572 102.379 101.211 102.379 102.047C102.379 102.617 102.24 103.096 101.963 103.482C101.689 103.865 101.307 104.16 100.814 104.367L102.73 107.924V108H101.143L99.4316 104.713ZM97.7793 103.523H99.3027C99.8027 103.523 100.193 103.398 100.475 103.148C100.756 102.895 100.896 102.549 100.896 102.111C100.896 101.654 100.766 101.301 100.504 101.051C100.246 100.801 99.8594 100.672 99.3438 100.664H97.7793V103.523ZM12.3496 118.83V122H10.8672V113.469H14.1309C15.084 113.469 15.8398 113.717 16.3984 114.213C16.9609 114.709 17.2422 115.365 17.2422 116.182C17.2422 117.018 16.9668 117.668 16.416 118.133C15.8691 118.598 15.1016 118.83 14.1133 118.83H12.3496ZM12.3496 117.641H14.1309C14.6582 117.641 15.0605 117.518 15.3379 117.271C15.6152 117.021 15.7539 116.662 15.7539 116.193C15.7539 115.732 15.6133 115.365 15.332 115.092C15.0508 114.814 14.6641 114.672 14.1719 114.664H12.3496V117.641ZM23.5293 118.191H20.0254V120.816H24.1211V122H18.543V113.469H24.0801V114.664H20.0254V117.02H23.5293V118.191ZM32.0957 122H30.6133L26.8105 115.947V122H25.3281V113.469H26.8105L30.625 119.545V113.469H32.0957V122ZM33.8477 122V113.469H36.3672C37.1211 113.469 37.7891 113.637 38.3711 113.973C38.957 114.309 39.4102 114.785 39.7305 115.402C40.0508 116.02 40.2109 116.727 40.2109 117.523V117.951C40.2109 118.76 40.0488 119.471 39.7246 120.084C39.4043 120.697 38.9453 121.17 38.3477 121.502C37.7539 121.834 37.0723 122 36.3027 122H33.8477ZM35.3301 114.664V120.816H36.2969C37.0742 120.816 37.6699 120.574 38.084 120.09C38.502 119.602 38.7148 118.902 38.7227 117.992V117.518C38.7227 116.592 38.5215 115.885 38.1191 115.396C37.7168 114.908 37.1328 114.664 36.3672 114.664H35.3301ZM43.252 122H41.7754V113.469H43.252V122ZM50.0605 118.191H46.5566V120.816H50.6523V122H45.0742V113.469H50.6113V114.664H46.5566V117.02H50.0605V118.191ZM58.627 122H57.1445L53.3418 115.947V122H51.8594V113.469H53.3418L57.1562 119.545V113.469H58.627V122ZM66.3672 114.664H63.707V122H62.2363V114.664H59.5996V113.469H66.3672V114.664ZM72.4785 118.191H68.9746V120.816H73.0703V122H67.4922V113.469H73.0293V114.664H68.9746V117.02H72.4785V118.191ZM84.0332 122H82.5508L78.748 115.947V122H77.2656V113.469H78.748L82.5625 119.545V113.469H84.0332V122ZM92.5938 117.957C92.5938 118.793 92.4492 119.527 92.1602 120.16C91.8711 120.789 91.457 121.273 90.918 121.613C90.3828 121.949 89.7656 122.117 89.0664 122.117C88.375 122.117 87.7578 121.949 87.2148 121.613C86.6758 121.273 86.2578 120.791 85.9609 120.166C85.668 119.541 85.5195 118.82 85.5156 118.004V117.523C85.5156 116.691 85.6621 115.957 85.9551 115.32C86.252 114.684 86.668 114.197 87.2031 113.861C87.7422 113.521 88.3594 113.352 89.0547 113.352C89.75 113.352 90.3652 113.52 90.9004 113.855C91.4395 114.188 91.8555 114.668 92.1484 115.297C92.4414 115.922 92.5898 116.65 92.5938 117.482V117.957ZM91.1113 117.512C91.1113 116.566 90.9316 115.842 90.5723 115.338C90.2168 114.834 89.7109 114.582 89.0547 114.582C88.4141 114.582 87.9121 114.834 87.5488 115.338C87.1895 115.838 87.0059 116.547 86.998 117.465V117.957C86.998 118.895 87.1797 119.619 87.543 120.131C87.9102 120.643 88.418 120.898 89.0664 120.898C89.7227 120.898 90.2266 120.648 90.5781 120.148C90.9336 119.648 91.1113 118.918 91.1113 117.957V117.512ZM98.5293 119.803C98.5293 119.428 98.3965 119.139 98.1309 118.936C97.8691 118.732 97.3945 118.527 96.707 118.32C96.0195 118.113 95.4727 117.883 95.0664 117.629C94.2891 117.141 93.9004 116.504 93.9004 115.719C93.9004 115.031 94.1797 114.465 94.7383 114.02C95.3008 113.574 96.0293 113.352 96.9238 113.352C97.5176 113.352 98.0469 113.461 98.5117 113.68C98.9766 113.898 99.3418 114.211 99.6074 114.617C99.873 115.02 100.006 115.467 100.006 115.959H98.5293C98.5293 115.514 98.3887 115.166 98.1074 114.916C97.8301 114.662 97.4316 114.535 96.9121 114.535C96.4277 114.535 96.0508 114.639 95.7812 114.846C95.5156 115.053 95.3828 115.342 95.3828 115.713C95.3828 116.025 95.5273 116.287 95.8164 116.498C96.1055 116.705 96.582 116.908 97.2461 117.107C97.9102 117.303 98.4434 117.527 98.8457 117.781C99.248 118.031 99.543 118.32 99.7305 118.648C99.918 118.973 100.012 119.354 100.012 119.791C100.012 120.502 99.7383 121.068 99.1914 121.49C98.6484 121.908 97.9102 122.117 96.9766 122.117C96.3594 122.117 95.791 122.004 95.2715 121.777C94.7559 121.547 94.3535 121.23 94.0645 120.828C93.7793 120.426 93.6367 119.957 93.6367 119.422H95.1191C95.1191 119.906 95.2793 120.281 95.5996 120.547C95.9199 120.812 96.3789 120.945 96.9766 120.945C97.4922 120.945 97.8789 120.842 98.1367 120.635C98.3984 120.424 98.5293 120.146 98.5293 119.803ZM17.377 133.223C17.291 134.133 16.9551 134.844 16.3691 135.355C15.7832 135.863 15.0039 136.117 14.0312 136.117C13.3516 136.117 12.752 135.957 12.2324 135.637C11.7168 135.312 11.3184 134.854 11.0371 134.26C10.7559 133.666 10.6094 132.977 10.5977 132.191V131.395C10.5977 130.59 10.7402 129.881 11.0254 129.268C11.3105 128.654 11.7188 128.182 12.25 127.85C12.7852 127.518 13.4023 127.352 14.1016 127.352C15.043 127.352 15.8008 127.607 16.375 128.119C16.9492 128.631 17.2832 129.354 17.377 130.287H15.9004C15.8301 129.674 15.6504 129.232 15.3613 128.963C15.0762 128.689 14.6562 128.553 14.1016 128.553C13.457 128.553 12.9609 128.789 12.6133 129.262C12.2695 129.73 12.0938 130.42 12.0859 131.33V132.086C12.0859 133.008 12.25 133.711 12.5781 134.195C12.9102 134.68 13.3945 134.922 14.0312 134.922C14.6133 134.922 15.0508 134.791 15.3438 134.529C15.6367 134.268 15.8223 133.832 15.9004 133.223H17.377ZM25.5156 131.957C25.5156 132.793 25.3711 133.527 25.082 134.16C24.793 134.789 24.3789 135.273 23.8398 135.613C23.3047 135.949 22.6875 136.117 21.9883 136.117C21.2969 136.117 20.6797 135.949 20.1367 135.613C19.5977 135.273 19.1797 134.791 18.8828 134.166C18.5898 133.541 18.4414 132.82 18.4375 132.004V131.523C18.4375 130.691 18.584 129.957 18.877 129.32C19.1738 128.684 19.5898 128.197 20.125 127.861C20.6641 127.521 21.2812 127.352 21.9766 127.352C22.6719 127.352 23.2871 127.52 23.8223 127.855C24.3613 128.188 24.7773 128.668 25.0703 129.297C25.3633 129.922 25.5117 130.65 25.5156 131.482V131.957ZM24.0332 131.512C24.0332 130.566 23.8535 129.842 23.4941 129.338C23.1387 128.834 22.6328 128.582 21.9766 128.582C21.3359 128.582 20.834 128.834 20.4707 129.338C20.1113 129.838 19.9277 130.547 19.9199 131.465V131.957C19.9199 132.895 20.1016 133.619 20.4648 134.131C20.832 134.643 21.3398 134.898 21.9883 134.898C22.6445 134.898 23.1484 134.648 23.5 134.148C23.8555 133.648 24.0332 132.918 24.0332 131.957V131.512ZM28.9141 127.469L31.375 134.008L33.8301 127.469H35.7461V136H34.2695V133.188L34.416 129.426L31.8965 136H30.8359L28.3223 129.432L28.4688 133.188V136H26.9922V127.469H28.9141ZM43.7441 127.469V133.17C43.7441 134.076 43.4531 134.795 42.8711 135.326C42.293 135.854 41.5215 136.117 40.5566 136.117C39.5801 136.117 38.8047 135.857 38.2305 135.338C37.6562 134.814 37.3691 134.09 37.3691 133.164V127.469H38.8457V133.176C38.8457 133.746 38.9902 134.182 39.2793 134.482C39.5684 134.783 39.9941 134.934 40.5566 134.934C41.6973 134.934 42.2676 134.332 42.2676 133.129V127.469H43.7441ZM52.0996 136H50.6172L46.8145 129.947V136H45.332V127.469H46.8145L50.6289 133.545V127.469H52.0996V136ZM55.416 136H53.9395V127.469H55.416V136ZM63.748 133.223C63.6621 134.133 63.3262 134.844 62.7402 135.355C62.1543 135.863 61.375 136.117 60.4023 136.117C59.7227 136.117 59.123 135.957 58.6035 135.637C58.0879 135.312 57.6895 134.854 57.4082 134.26C57.127 133.666 56.9805 132.977 56.9688 132.191V131.395C56.9688 130.59 57.1113 129.881 57.3965 129.268C57.6816 128.654 58.0898 128.182 58.6211 127.85C59.1562 127.518 59.7734 127.352 60.4727 127.352C61.4141 127.352 62.1719 127.607 62.7461 128.119C63.3203 128.631 63.6543 129.354 63.748 130.287H62.2715C62.2012 129.674 62.0215 129.232 61.7324 128.963C61.4473 128.689 61.0273 128.553 60.4727 128.553C59.8281 128.553 59.332 128.789 58.9844 129.262C58.6406 129.73 58.4648 130.42 58.457 131.33V132.086C58.457 133.008 58.6211 133.711 58.9492 134.195C59.2812 134.68 59.7656 134.922 60.4023 134.922C60.9844 134.922 61.4219 134.791 61.7148 134.529C62.0078 134.268 62.1934 133.832 62.2715 133.223H63.748ZM69.8535 134.014H66.5488L65.8574 136H64.3164L67.5391 127.469H68.8691L72.0977 136H70.5508L69.8535 134.014ZM66.9648 132.818H69.4375L68.2012 129.279L66.9648 132.818ZM76.2051 132.713H74.5527V136H73.0703V127.469H76.0703C77.0547 127.469 77.8145 127.689 78.3496 128.131C78.8848 128.572 79.1523 129.211 79.1523 130.047C79.1523 130.617 79.0137 131.096 78.7363 131.482C78.4629 131.865 78.0801 132.16 77.5879 132.367L79.5039 135.924V136H77.916L76.2051 132.713ZM74.5527 131.523H76.0762C76.5762 131.523 76.9668 131.398 77.248 131.148C77.5293 130.895 77.6699 130.549 77.6699 130.111C77.6699 129.654 77.5391 129.301 77.2773 129.051C77.0195 128.801 76.6328 128.672 76.1172 128.664H74.5527V131.523ZM85.5449 132.191H82.041V134.816H86.1367V136H80.5586V127.469H86.0957V128.664H82.041V131.02H85.5449V132.191ZM89.2656 127.469L91.7266 134.008L94.1816 127.469H96.0977V136H94.6211V133.188L94.7676 129.426L92.248 136H91.1875L88.6738 129.432L88.8203 133.188V136H87.3438V127.469H89.2656ZM104.664 131.957C104.664 132.793 104.52 133.527 104.23 134.16C103.941 134.789 103.527 135.273 102.988 135.613C102.453 135.949 101.836 136.117 101.137 136.117C100.445 136.117 99.8281 135.949 99.2852 135.613C98.7461 135.273 98.3281 134.791 98.0312 134.166C97.7383 133.541 97.5898 132.82 97.5859 132.004V131.523C97.5859 130.691 97.7324 129.957 98.0254 129.32C98.3223 128.684 98.7383 128.197 99.2734 127.861C99.8125 127.521 100.43 127.352 101.125 127.352C101.82 127.352 102.436 127.52 102.971 127.855C103.51 128.188 103.926 128.668 104.219 129.297C104.512 129.922 104.66 130.65 104.664 131.482V131.957ZM103.182 131.512C103.182 130.566 103.002 129.842 102.643 129.338C102.287 128.834 101.781 128.582 101.125 128.582C100.484 128.582 99.9824 128.834 99.6191 129.338C99.2598 129.838 99.0762 130.547 99.0684 131.465V131.957C99.0684 132.895 99.25 133.619 99.6133 134.131C99.9805 134.643 100.488 134.898 101.137 134.898C101.793 134.898 102.297 134.648 102.648 134.148C103.004 133.648 103.182 132.918 103.182 131.957V131.512ZM110.6 133.803C110.6 133.428 110.467 133.139 110.201 132.936C109.939 132.732 109.465 132.527 108.777 132.32C108.09 132.113 107.543 131.883 107.137 131.629C106.359 131.141 105.971 130.504 105.971 129.719C105.971 129.031 106.25 128.465 106.809 128.02C107.371 127.574 108.1 127.352 108.994 127.352C109.588 127.352 110.117 127.461 110.582 127.68C111.047 127.898 111.412 128.211 111.678 128.617C111.943 129.02 112.076 129.467 112.076 129.959H110.6C110.6 129.514 110.459 129.166 110.178 128.916C109.9 128.662 109.502 128.535 108.982 128.535C108.498 128.535 108.121 128.639 107.852 128.846C107.586 129.053 107.453 129.342 107.453 129.713C107.453 130.025 107.598 130.287 107.887 130.498C108.176 130.705 108.652 130.908 109.316 131.107C109.98 131.303 110.514 131.527 110.916 131.781C111.318 132.031 111.613 132.32 111.801 132.648C111.988 132.973 112.082 133.354 112.082 133.791C112.082 134.502 111.809 135.068 111.262 135.49C110.719 135.908 109.98 136.117 109.047 136.117C108.43 136.117 107.861 136.004 107.342 135.777C106.826 135.547 106.424 135.23 106.135 134.828C105.85 134.426 105.707 133.957 105.707 133.422H107.189C107.189 133.906 107.35 134.281 107.67 134.547C107.99 134.812 108.449 134.945 109.047 134.945C109.562 134.945 109.949 134.842 110.207 134.635C110.469 134.424 110.6 134.146 110.6 133.803ZM17.377 147.223C17.291 148.133 16.9551 148.844 16.3691 149.355C15.7832 149.863 15.0039 150.117 14.0312 150.117C13.3516 150.117 12.752 149.957 12.2324 149.637C11.7168 149.312 11.3184 148.854 11.0371 148.26C10.7559 147.666 10.6094 146.977 10.5977 146.191V145.395C10.5977 144.59 10.7402 143.881 11.0254 143.268C11.3105 142.654 11.7188 142.182 12.25 141.85C12.7852 141.518 13.4023 141.352 14.1016 141.352C15.043 141.352 15.8008 141.607 16.375 142.119C16.9492 142.631 17.2832 143.354 17.377 144.287H15.9004C15.8301 143.674 15.6504 143.232 15.3613 142.963C15.0762 142.689 14.6562 142.553 14.1016 142.553C13.457 142.553 12.9609 142.789 12.6133 143.262C12.2695 143.73 12.0938 144.42 12.0859 145.33V146.086C12.0859 147.008 12.25 147.711 12.5781 148.195C12.9102 148.68 13.3945 148.922 14.0312 148.922C14.6133 148.922 15.0508 148.791 15.3438 148.529C15.6367 148.268 15.8223 147.832 15.9004 147.223H17.377ZM25.5156 145.957C25.5156 146.793 25.3711 147.527 25.082 148.16C24.793 148.789 24.3789 149.273 23.8398 149.613C23.3047 149.949 22.6875 150.117 21.9883 150.117C21.2969 150.117 20.6797 149.949 20.1367 149.613C19.5977 149.273 19.1797 148.791 18.8828 148.166C18.5898 147.541 18.4414 146.82 18.4375 146.004V145.523C18.4375 144.691 18.584 143.957 18.877 143.32C19.1738 142.684 19.5898 142.197 20.125 141.861C20.6641 141.521 21.2812 141.352 21.9766 141.352C22.6719 141.352 23.2871 141.52 23.8223 141.855C24.3613 142.188 24.7773 142.668 25.0703 143.297C25.3633 143.922 25.5117 144.65 25.5156 145.482V145.957ZM24.0332 145.512C24.0332 144.566 23.8535 143.842 23.4941 143.338C23.1387 142.834 22.6328 142.582 21.9766 142.582C21.3359 142.582 20.834 142.834 20.4707 143.338C20.1113 143.838 19.9277 144.547 19.9199 145.465V145.957C19.9199 146.895 20.1016 147.619 20.4648 148.131C20.832 148.643 21.3398 148.898 21.9883 148.898C22.6445 148.898 23.1484 148.648 23.5 148.148C23.8555 147.648 24.0332 146.918 24.0332 145.957V145.512ZM33.7598 150H32.2773L28.4746 143.947V150H26.9922V141.469H28.4746L32.2891 147.545V141.469H33.7598V150ZM41.5 142.664H38.8398V150H37.3691V142.664H34.7324V141.469H41.5V142.664ZM44.1895 150H42.7129V141.469H44.1895V150ZM52.5508 148.893C52.2422 149.295 51.8145 149.6 51.2676 149.807C50.7207 150.014 50.0996 150.117 49.4043 150.117C48.6895 150.117 48.0566 149.955 47.5059 149.631C46.9551 149.307 46.5293 148.844 46.2285 148.242C45.9316 147.637 45.7773 146.932 45.7656 146.127V145.459C45.7656 144.17 46.0742 143.164 46.6914 142.441C47.3086 141.715 48.1699 141.352 49.2754 141.352C50.2246 141.352 50.9785 141.586 51.5371 142.055C52.0957 142.523 52.4316 143.199 52.5449 144.082H51.0918C50.9277 143.055 50.332 142.541 49.3047 142.541C48.6406 142.541 48.1348 142.781 47.7871 143.262C47.4434 143.738 47.2656 144.439 47.2539 145.365V146.021C47.2539 146.943 47.4473 147.66 47.834 148.172C48.2246 148.68 48.7656 148.934 49.457 148.934C50.2148 148.934 50.7539 148.762 51.0742 148.418V146.748H49.3164V145.623H52.5508V148.893ZM60.9883 145.957C60.9883 146.793 60.8438 147.527 60.5547 148.16C60.2656 148.789 59.8516 149.273 59.3125 149.613C58.7773 149.949 58.1602 150.117 57.4609 150.117C56.7695 150.117 56.1523 149.949 55.6094 149.613C55.0703 149.273 54.6523 148.791 54.3555 148.166C54.0625 147.541 53.9141 146.82 53.9102 146.004V145.523C53.9102 144.691 54.0566 143.957 54.3496 143.32C54.6465 142.684 55.0625 142.197 55.5977 141.861C56.1367 141.521 56.7539 141.352 57.4492 141.352C58.1445 141.352 58.7598 141.52 59.2949 141.855C59.834 142.188 60.25 142.668 60.543 143.297C60.8359 143.922 60.9844 144.65 60.9883 145.482V145.957ZM59.5059 145.512C59.5059 144.566 59.3262 143.842 58.9668 143.338C58.6113 142.834 58.1055 142.582 57.4492 142.582C56.8086 142.582 56.3066 142.834 55.9434 143.338C55.584 143.838 55.4004 144.547 55.3926 145.465V145.957C55.3926 146.895 55.5742 147.619 55.9375 148.131C56.3047 148.643 56.8125 148.898 57.4609 148.898C58.1172 148.898 58.6211 148.648 58.9727 148.148C59.3281 147.648 59.5059 146.918 59.5059 145.957V145.512ZM66.8242 147.486H65.5996L65.4648 141.469H66.9648L66.8242 147.486ZM65.4238 149.326C65.4238 149.104 65.4961 148.92 65.6406 148.775C65.7852 148.627 65.9824 148.553 66.2324 148.553C66.4824 148.553 66.6797 148.627 66.8242 148.775C66.9688 148.92 67.041 149.104 67.041 149.326C67.041 149.541 66.9707 149.721 66.8301 149.865C66.6895 150.01 66.4902 150.082 66.2324 150.082C65.9746 150.082 65.7754 150.01 65.6348 149.865C65.4941 149.721 65.4238 149.541 65.4238 149.326Z" fill="#314584"/>
</g>
<defs>
<clipPath id="clip0_1_2">
<rect width="386" height="167" fill="white"/>
</clipPath>
</defs>
</svg>
