<svg width="29" height="45" viewBox="0 0 29 45" fill="none" xmlns="http://www.w3.org/2000/svg">
<g clip-path="url(#clip0_9_23)">
<path d="M9.15967 16.405C9.71157 15.941 10.3162 15.5414 11.0245 15.2467C11.3813 15.1096 11.7715 14.9961 12.2355 15.0164C12.4658 15.0367 12.7207 15.0858 12.9491 15.2332C13.1829 15.3653 13.3587 15.5702 13.4782 15.77C13.7172 16.1696 13.7911 16.5811 13.8702 16.8927C13.886 16.9604 13.9159 17.0434 13.9123 17.0197C13.9088 17.0112 13.9035 16.9926 13.8719 16.9502C13.8631 16.9384 13.8227 16.8927 13.7928 16.8724C13.7489 16.8368 13.6944 16.8097 13.6294 16.7894C13.5608 16.7691 13.4958 16.764 13.4378 16.7674C13.3815 16.7674 13.3024 16.7978 13.2813 16.8046C13.2479 16.8165 13.2163 16.8351 13.1882 16.8554C13.1689 16.869 13.1636 16.8724 13.1513 16.8825C13.1267 16.9079 13.1284 16.9045 13.1249 16.9079C13.1196 16.9147 13.1249 16.9045 13.1284 16.8978C13.1337 16.8893 13.146 16.8571 13.1565 16.8334C13.1794 16.7758 13.2022 16.7098 13.2251 16.6353C13.3165 16.3406 13.4044 16.007 13.494 15.6701C13.5907 15.3297 13.6838 14.991 13.8368 14.6117C13.8807 14.5135 13.9211 14.4187 13.9897 14.3052C14.0037 14.2781 14.0231 14.2493 14.0459 14.2172C14.0705 14.185 14.0828 14.1596 14.118 14.1189C14.176 14.0512 14.2463 13.9665 14.3992 13.8768C14.4414 13.8531 14.4836 13.8328 14.5293 13.8158C14.575 13.7972 14.6453 13.782 14.705 13.7735C14.8281 13.7532 14.9581 13.7718 15.0794 13.8091C15.1814 13.8446 15.264 13.8971 15.3325 13.9479C15.3817 13.9885 15.4345 14.0394 15.4696 14.0817C15.6014 14.2442 15.6419 14.3526 15.6946 14.4661C15.8545 14.8843 15.9196 15.2247 15.9899 15.5769L16.1727 16.5929C16.2025 16.7555 16.2359 16.9164 16.2711 17.0637C16.2887 17.1348 16.308 17.2059 16.3273 17.2618C16.3414 17.3211 16.3748 17.3651 16.3432 17.3397L16.3256 17.3296C16.3115 17.3177 16.2957 17.3075 16.2799 17.3008C16.257 17.2923 16.1815 17.2567 16.1217 17.2618C16.0654 17.2534 15.9881 17.2737 15.953 17.2923C15.9266 17.2991 15.8932 17.3296 15.8862 17.3363C15.8827 17.3397 15.8791 17.3431 15.8791 17.3499C15.8809 17.3516 15.8897 17.3397 15.895 17.3363C15.9073 17.3313 15.9248 17.3008 15.9424 17.2788C16.0127 17.1755 16.0865 17.0332 16.1533 16.8842C16.2869 16.5879 16.4064 16.2644 16.5242 15.9427C16.7667 15.2958 16.9794 14.632 17.2396 13.9733C17.2677 14.6794 17.2237 15.3754 17.1534 16.0799C17.1112 16.4321 17.062 16.7826 16.9741 17.1433C16.932 17.3245 16.8775 17.5057 16.7861 17.7106C16.7597 17.7631 16.7386 17.8122 16.6964 17.8748C16.6753 17.9053 16.6613 17.9324 16.6332 17.9663C16.6015 18.0018 16.5664 18.0374 16.5312 18.0713C16.4926 18.1068 16.4152 18.1542 16.3519 18.1847C16.2781 18.2186 16.1533 18.244 16.0531 18.2389C15.9494 18.2321 15.8264 18.1949 15.7684 18.1576C15.7333 18.1373 15.6981 18.117 15.6665 18.0933C15.6419 18.0729 15.6225 18.056 15.6014 18.0374C15.4485 17.8833 15.3975 17.7715 15.3448 17.6716C15.2921 17.5683 15.2552 17.4752 15.2183 17.3821C15.148 17.1975 15.0952 17.0231 15.0443 16.8486C14.9406 16.5032 14.8615 16.1628 14.7736 15.836C14.6892 15.5143 14.6013 15.1756 14.4976 14.9487C14.4765 14.9047 14.4449 14.8522 14.4625 14.881C14.4695 14.8911 14.4888 14.9131 14.5064 14.9233C14.5381 14.9504 14.5838 14.9792 14.6453 14.9978C14.7226 15.0283 14.8087 15.03 14.8861 15.0232C14.9247 15.0198 14.9704 15.0046 14.9968 14.9944C15.0214 14.9876 15.0443 14.9775 15.0671 14.9639C15.1427 14.9182 15.1497 14.8996 15.1532 14.8996C15.1567 14.8911 15.1497 14.9064 15.148 14.908C15.1444 14.9114 15.1409 14.9182 15.1339 14.9301C15.1128 14.9656 15.0847 15.03 15.0566 15.0909C14.9423 15.3551 14.8456 15.6836 14.7455 16.0087C14.6382 16.3372 14.5451 16.6725 14.4027 17.0315C14.3676 17.1213 14.3254 17.2161 14.2762 17.316C14.2463 17.3702 14.2252 17.4176 14.183 17.4837C14.1637 17.5141 14.1461 17.5429 14.1145 17.5836C14.0846 17.6208 14.0617 17.6547 14.002 17.7089C13.9739 17.7343 13.9545 17.7529 13.9158 17.78C13.8684 17.8122 13.8174 17.841 13.7647 17.863C13.7243 17.885 13.6223 17.9104 13.545 17.9155C13.4641 17.9239 13.378 17.9172 13.2866 17.8901C13.1987 17.8664 13.1267 17.824 13.0634 17.7783C13.0177 17.7427 12.9579 17.6852 12.9368 17.6547C12.8771 17.5768 12.8507 17.5209 12.8296 17.4718C12.7576 17.2872 12.7558 17.1992 12.7365 17.0976C12.6873 16.7318 12.6591 16.4439 12.5677 16.2255C12.4781 16.0121 12.3762 15.9139 12.1231 15.836C11.87 15.775 11.5395 15.7869 11.2091 15.8377C10.5306 15.9427 9.85042 16.1832 9.15967 16.405Z" fill="#044983"/>
<path d="M19.1589 45.4648C17.6649 45.4699 16.1709 45.4462 14.6769 45.4089C13.9299 45.3869 13.1812 45.3547 12.4324 45.309C11.6801 45.2565 10.9402 45.2142 10.158 45.0652C10.0578 45.0448 9.9594 45.0211 9.84867 44.9856C9.7977 44.972 9.73091 44.9416 9.67115 44.9145C9.63248 44.8924 9.59557 44.8704 9.55866 44.8467C9.53757 44.8315 9.50593 44.801 9.48308 44.7773C9.45496 44.7434 9.43914 44.7383 9.40926 44.6791C9.3495 44.5673 9.33368 44.4335 9.38641 44.3031C9.4075 44.2591 9.43211 44.2168 9.46375 44.1778C9.4866 44.1507 9.50945 44.1304 9.53405 44.1084C9.62194 44.0373 9.68521 44.0068 9.74321 43.978C9.86098 43.9238 9.9594 43.89 10.0596 43.8595C10.4533 43.7393 10.8224 43.6715 11.1968 43.6004C11.942 43.4632 12.6802 43.3515 13.4184 43.2363C14.1549 43.1212 14.8896 43.0077 15.6155 42.8807C16.3379 42.752 17.0673 42.6149 17.7247 42.4201C17.8864 42.371 18.0428 42.3168 18.1676 42.2593C18.2309 42.2322 18.2836 42.2017 18.3064 42.1848C18.3135 42.1797 18.3188 42.1763 18.317 42.1763C18.317 42.1763 18.3205 42.1746 18.3082 42.1831C18.3029 42.1881 18.2941 42.1966 18.2748 42.2203C18.266 42.2356 18.2379 42.2728 18.2256 42.3151C18.1869 42.4015 18.1957 42.5454 18.2238 42.6149C18.2291 42.6335 18.2414 42.6538 18.2484 42.6674C18.252 42.6775 18.2572 42.6877 18.2643 42.6961L18.2871 42.7266C18.2994 42.7419 18.2643 42.7131 18.2151 42.6894C18.1131 42.6369 17.9602 42.5776 17.8073 42.5268C17.1728 42.3202 16.4469 42.1729 15.7333 42.0357C14.292 41.7631 12.8226 41.5497 11.3409 41.3059C10.97 41.2449 10.5974 41.1806 10.2195 41.1095C9.83812 41.0367 9.46726 40.9655 9.04367 40.8402C8.93645 40.8081 8.82397 40.7725 8.68335 40.7132C8.6482 40.698 8.61305 40.6827 8.56735 40.659L8.50231 40.6252C8.47947 40.6116 8.44431 40.5896 8.41619 40.571C8.38104 40.5456 8.37049 40.5439 8.31776 40.4999C8.27382 40.4626 8.23164 40.4237 8.19297 40.3813C8.13497 40.3153 8.06818 40.2154 8.02599 40.1239C7.97151 40.0088 7.93108 39.8022 7.95217 39.6498C7.96448 39.4991 8.05236 39.2993 8.12091 39.2146C8.17715 39.135 8.258 39.0537 8.32479 39.0012C8.40916 38.9369 8.52516 38.8725 8.56911 38.8556L8.66226 38.8167L8.73081 38.7929C8.77827 38.776 8.82045 38.7642 8.85384 38.7557C9.005 38.7151 9.11573 38.6964 9.22998 38.6778C9.66763 38.6118 10.049 38.5847 10.4357 38.5593C11.9666 38.4678 13.4501 38.4407 14.93 38.3747C15.6682 38.3425 16.4029 38.3036 17.12 38.2443C17.4768 38.2138 17.8319 38.1783 18.1676 38.1292C18.3346 38.1054 18.4998 38.0784 18.6492 38.0462C18.7951 38.0157 18.941 37.9767 19.0113 37.9463C19.0482 37.9344 19.057 37.9175 18.9937 37.9581C18.9603 37.9835 18.8988 38.0225 18.8126 38.1461C18.7898 38.1783 18.7705 38.2138 18.7564 38.2477C18.7371 38.2866 18.716 38.3391 18.7037 38.3865C18.6808 38.4797 18.6633 38.6016 18.6791 38.715C18.6861 38.7709 18.6949 38.8251 18.7125 38.8776C18.7318 38.9335 18.7529 38.9792 18.7687 39.0131C18.788 39.0503 18.8091 39.0859 18.8355 39.1181C18.8531 39.1435 18.8654 39.1604 18.8847 39.1807C18.9269 39.2248 18.941 39.2383 18.962 39.2552L18.999 39.2823C19.0218 39.2993 18.9937 39.2789 18.941 39.262C18.73 39.1824 18.3662 39.0944 18.0252 39.0199C17.3239 38.8658 16.5769 38.7168 15.8334 38.544C14.343 38.1986 12.8279 37.7668 11.3655 37.0962C9.91195 36.429 8.47947 35.4943 7.40555 34.1548C7.13839 33.8212 6.89759 33.4673 6.68667 33.0948C6.49157 32.7155 6.28944 32.3345 6.15938 31.9314C5.86761 31.1339 5.72173 30.3109 5.64263 29.5455C5.56354 28.775 5.53717 28.0638 5.46335 27.3983C5.39305 26.7345 5.27704 26.1198 5.08722 25.5407C4.89915 24.9615 4.60914 24.4248 4.27694 23.8998C4.0836 23.6475 3.92014 23.3867 3.70219 23.1378C3.49128 22.8855 3.25224 22.6247 2.99914 22.3385C2.48766 21.7679 1.95861 21.077 1.56314 20.3607C1.16064 19.6478 0.847781 18.9078 0.601711 18.1424C0.355641 17.3787 0.193937 16.5946 0.100782 15.8089C0.0533253 15.4161 0.0252039 15.0215 0.0111428 14.632C-0.00116071 14.2341 -0.00291852 13.8819 0.00411206 13.4907C0.0322343 11.943 0.280061 10.3715 0.81087 8.87459C1.071 8.12443 1.41023 7.39628 1.81624 6.7037C2.21347 6.00603 2.69155 5.3507 3.22411 4.74278C4.28573 3.52187 5.60045 2.50246 7.04523 1.76077C7.76235 1.37637 8.52165 1.08512 9.28447 0.822646C10.0543 0.583882 10.8347 0.382369 11.6274 0.248593C12.4183 0.116511 13.2163 0.0318436 14.0248 0.00644319C14.227 0.0013631 14.4308 -0.00202343 14.6365 0.0013633C14.8456 0.00305667 15.0583 0.0149108 15.2605 0.0284577C15.6665 0.0589383 16.0672 0.101272 16.4627 0.16054C18.0463 0.390837 19.5878 0.84127 21.0449 1.4966C22.4949 2.16379 23.8378 3.07482 24.9732 4.18228C27.2634 6.39043 28.6256 9.39276 28.8839 12.4323C28.949 13.1927 28.9578 13.9615 28.8787 14.7302C28.8031 15.4923 28.659 16.239 28.4568 16.9723C28.2565 17.7038 27.9963 18.4201 27.6764 19.1093C27.3548 19.7985 26.9927 20.4657 26.5269 21.099C26.0735 21.7374 25.4741 22.303 24.9152 22.7737C24.358 23.2462 23.8694 23.7102 23.4335 24.2571C22.5529 25.3205 22.0379 26.6261 21.6811 27.9961C21.3138 29.3643 21.1433 30.7986 20.7636 32.2159C20.6617 32.5681 20.5422 32.9204 20.3805 33.2573C20.217 33.5926 20.0061 33.9194 19.7126 34.1735C19.4173 34.4224 19.0447 34.59 18.6597 34.6171C18.2748 34.6442 17.8987 34.5545 17.5542 34.4207C17.911 34.5223 18.2889 34.5748 18.6457 34.5138C19.0025 34.4562 19.3259 34.2734 19.5702 34.0312C20.0518 33.5215 20.2381 32.8154 20.3752 32.1296C20.6336 30.7376 20.6986 29.2915 20.9675 27.8504C21.0976 27.1291 21.2734 26.406 21.5388 25.6999C21.7954 24.9954 22.168 24.3011 22.6074 23.6814C23.0415 23.0565 23.5847 22.4757 24.119 21.9677C24.648 21.4597 25.0945 20.9821 25.4513 20.4098C25.8133 19.8459 26.1227 19.2227 26.3793 18.5877C26.6377 17.9527 26.8398 17.2974 26.9857 16.6302C27.1351 15.9647 27.23 15.2891 27.2616 14.6168C27.2968 13.9513 27.2546 13.2773 27.165 12.6085C26.9716 11.2741 26.5867 9.96512 25.968 8.77468C25.3634 7.57747 24.525 6.50049 23.5319 5.59623C21.5475 3.77417 18.8742 2.71921 16.1358 2.36191C15.793 2.31789 15.4503 2.2891 15.1128 2.27047C14.9423 2.2637 14.7824 2.25692 14.6189 2.25862C14.4519 2.25862 14.2814 2.26539 14.1127 2.27217C13.4307 2.30773 12.7435 2.39409 12.0668 2.52109C11.3901 2.64809 10.731 2.83605 10.086 3.04772C9.45144 3.28479 8.82221 3.53541 8.24394 3.86562C7.07511 4.50571 6.02755 5.32191 5.18564 6.31591C4.76205 6.80868 4.3824 7.33871 4.06954 7.90599C3.74789 8.46818 3.47897 9.05917 3.27333 9.67555C2.84798 10.9032 2.63882 12.2071 2.62124 13.5313C2.61773 13.8599 2.61948 14.2256 2.63179 14.5474C2.64409 14.8759 2.6687 15.1993 2.70912 15.5193C2.78822 16.1611 2.9218 16.7911 3.11866 17.4007C3.312 18.0086 3.56334 18.608 3.87268 19.1584C4.18027 19.7121 4.53707 20.1896 4.99582 20.7078C5.22607 20.9703 5.48093 21.2497 5.73754 21.5562C5.99943 21.8593 6.23144 22.2098 6.474 22.5417C6.91868 23.2394 7.31767 23.9896 7.56549 24.7888C7.81684 25.583 7.95217 26.3924 8.02599 27.1578C8.10157 27.9232 8.11915 28.6497 8.18243 29.3101C8.24394 29.9739 8.35292 30.5784 8.54977 31.1389C8.59899 31.2795 8.64293 31.4217 8.71323 31.5521C8.77827 31.6859 8.831 31.8248 8.90306 31.9551C9.04367 32.2176 9.20713 32.4682 9.38993 32.7087C10.1229 33.6705 11.2021 34.4376 12.4201 35.0252C13.6417 35.6179 14.995 36.0412 16.3959 36.3935C17.0989 36.5713 17.8108 36.727 18.5613 36.9082C18.7494 36.954 18.941 37.0031 19.1396 37.0572C19.3399 37.1148 19.5438 37.1741 19.7917 37.2723C19.9129 37.3214 20.0518 37.3807 20.2328 37.4941C20.2803 37.5246 20.3207 37.55 20.3822 37.6008C20.4385 37.6465 20.4894 37.6872 20.5597 37.7668C20.5931 37.804 20.6213 37.8379 20.6529 37.8802C20.6898 37.9327 20.7232 37.9869 20.7548 38.0445C20.7847 38.097 20.8128 38.163 20.8375 38.2409C20.8603 38.3154 20.8796 38.3916 20.8884 38.4695C20.9042 38.6287 20.8937 38.7963 20.8515 38.9318C20.8322 39.0012 20.8058 39.0757 20.7777 39.135C20.7496 39.1892 20.7197 39.2434 20.6845 39.2959C20.5492 39.4957 20.4156 39.5956 20.3084 39.6735C20.094 39.8174 19.9323 39.8784 19.7952 39.9292C19.5157 40.0257 19.296 40.0664 19.0763 40.107C18.8601 40.1443 18.6545 40.1713 18.4523 40.1934C18.0481 40.2374 17.6596 40.2628 17.273 40.2848C16.5013 40.3237 15.7456 40.3373 14.9915 40.3458C13.4887 40.3627 11.9877 40.3424 10.5359 40.3813C10.1791 40.3932 9.81352 40.4101 9.51296 40.4457C9.44265 40.4541 9.37059 40.466 9.34071 40.4728C9.32841 40.4745 9.32665 40.4761 9.33017 40.4745C9.33017 40.4745 9.33016 40.4728 9.33192 40.4728C9.34247 40.4694 9.35126 40.466 9.36005 40.4609C9.36005 40.4609 9.43914 40.422 9.48484 40.3813C9.53581 40.3441 9.60084 40.2797 9.64127 40.2171C9.694 40.1493 9.77837 39.9732 9.78364 39.8428C9.80649 39.7124 9.76782 39.5296 9.72212 39.4347C9.694 39.3619 9.63775 39.2823 9.59381 39.2349C9.57096 39.2078 9.54636 39.1841 9.51999 39.1621L9.47781 39.1299L9.44969 39.1147L9.44617 39.113C9.43914 39.1113 9.44793 39.1147 9.45496 39.1181C9.48308 39.1316 9.54811 39.1587 9.61666 39.1807C9.90316 39.2756 10.26 39.3636 10.608 39.4466C10.9595 39.5296 11.3181 39.6075 11.6801 39.6854C13.1267 39.9935 14.5961 40.2746 16.069 40.6235C16.8089 40.8047 17.5401 40.9808 18.3082 41.2686C18.5033 41.3448 18.6966 41.4244 18.9181 41.5514C19.0288 41.6175 19.1484 41.692 19.2907 41.8376C19.3276 41.8783 19.3593 41.9104 19.4015 41.9731C19.4208 42.0019 19.4384 42.0307 19.4559 42.0594C19.4735 42.0916 19.4911 42.1357 19.5069 42.1746C19.5386 42.2474 19.5561 42.3507 19.5596 42.4506C19.5614 42.5454 19.5421 42.6555 19.5104 42.7385C19.4788 42.8215 19.4366 42.901 19.3962 42.9518C19.3522 43.0145 19.3118 43.0568 19.2732 43.0924C19.231 43.1347 19.1958 43.1601 19.1589 43.1889C19.1202 43.2194 19.0868 43.2397 19.0552 43.2583C18.9216 43.3396 18.8074 43.3887 18.6984 43.4311C18.4805 43.514 18.2801 43.5682 18.0815 43.6156C17.2976 43.7968 16.5506 43.8883 15.8 43.9797C15.0513 44.0678 14.3043 44.1389 13.5626 44.21C12.8208 44.2811 12.0791 44.3506 11.3515 44.4403C10.9894 44.486 10.622 44.5385 10.2969 44.6113C10.2178 44.63 10.1387 44.652 10.086 44.6706C10.0613 44.6791 10.0403 44.6909 10.0561 44.6774C10.0631 44.6706 10.0684 44.6655 10.0754 44.6554C10.093 44.6367 10.107 44.613 10.1158 44.5876C10.151 44.5013 10.1457 44.4115 10.1053 44.3421C10.0807 44.3048 10.0877 44.3116 10.0736 44.2964C10.0666 44.2879 10.049 44.2761 10.0455 44.2744C10.0473 44.2744 10.049 44.2761 10.049 44.2795C10.0736 44.2896 10.0895 44.3032 10.1264 44.3167C10.1897 44.3438 10.2705 44.3692 10.3514 44.3929C11.0228 44.5724 11.7733 44.674 12.5027 44.7756C13.2374 44.8738 13.9774 44.9551 14.7191 45.0347C16.1867 45.1922 17.6737 45.3226 19.1589 45.4648Z" fill="#044983"/>
<path d="M15.4784 21.4122C15.206 22.54 14.9933 23.6864 14.8579 24.8362C14.7226 25.986 14.6646 27.1409 14.7437 28.2771C14.7859 28.8444 14.8544 29.4083 14.9792 29.9586C15.104 30.5073 15.2798 31.039 15.4907 31.5623C15.7034 32.0821 15.953 32.602 16.301 33.0761C16.6455 33.5537 17.0761 33.977 17.5471 34.4156C17.2255 34.3529 16.9144 34.2412 16.6173 34.0989C16.4679 34.0278 16.3273 33.9448 16.1867 33.8568C16.0443 33.7721 15.902 33.684 15.7702 33.5824C15.2288 33.1947 14.7296 32.7205 14.3324 32.177C13.9317 31.6351 13.6346 31.0322 13.3956 30.4175C13.1583 29.8012 12.9755 29.1712 12.8419 28.5345C12.5765 27.2611 12.4834 25.9725 12.5027 24.6957C12.5255 23.4189 12.6591 22.1505 12.8999 20.8975C13.1073 19.8052 13.8192 19.1245 14.4308 19.1635C14.8949 19.1922 15.2218 19.6308 15.2956 19.729C15.8317 20.4419 15.5153 21.314 15.4784 21.4122Z" fill="#044983"/>
</g>
<defs>
<clipPath id="clip0_9_23">
<rect width="29" height="45" fill="white"/>
</clipPath>
</defs>
</svg>
