<svg width="90" height="21" viewBox="0 0 90 21" fill="none" xmlns="http://www.w3.org/2000/svg">
<path d="M69.5714 5.47827H64.7143C64.4286 5.47827 64.1429 5.73914 64 6.00001L62 17.4783C62 17.7391 62.1429 17.8696 62.4286 17.8696H65C65.2857 17.8696 65.4286 17.7391 65.4286 17.4783L66 14.2174C66 13.9565 66.2857 13.6957 66.7143 13.6957H68.2857C71.5714 13.6957 73.4286 12.2609 73.8571 9.39131C74.1429 8.2174 73.8571 7.17392 73.2857 6.52175C72.4286 5.86957 71.1429 5.47827 69.5714 5.47827ZM70.1429 9.78262C69.8571 11.3478 68.5714 11.3478 67.2857 11.3478H66.4286L67 8.34783C67 8.2174 67.1429 8.08697 67.4286 8.08697H67.7143C68.5714 8.08697 69.4286 8.08697 69.8572 8.60871C70.1429 8.73914 70.1429 9.13044 70.1429 9.78262Z" fill="#139AD6"/>
<path d="M34.5714 5.47827H29.7143C29.4286 5.47827 29.1429 5.73914 29 6.00001L27 17.4783C27 17.7391 27.1429 17.8696 27.4286 17.8696H29.7143C30 17.8696 30.2857 17.6087 30.4286 17.3478L31 14.2174C31 13.9565 31.2857 13.6957 31.7143 13.6957H33.2857C36.5714 13.6957 38.4286 12.2609 38.8572 9.39131C39.1429 8.2174 38.8571 7.17392 38.2857 6.52175C37.4286 5.86957 36.2857 5.47827 34.5714 5.47827ZM35.1429 9.78262C34.8572 11.3478 33.5714 11.3478 32.2857 11.3478H31.5714L32.1429 8.34783C32.1429 8.2174 32.2857 8.08697 32.5714 8.08697H32.8572C33.7143 8.08697 34.5714 8.08697 35 8.60871C35.1429 8.73914 35.2857 9.13044 35.1429 9.78262Z" fill="#263B80"/>
<path d="M49.2857 9.65217H47C46.8571 9.65217 46.5714 9.78261 46.5714 9.91304L46.4286 10.5652L46.2857 10.3043C45.7143 9.65217 44.7143 9.3913 43.5714 9.3913C41 9.3913 38.7143 11.2174 38.2857 13.6957C38 15 38.4286 16.1739 39.1429 16.9565C39.8571 17.7391 40.8571 18 42.1429 18C44.2857 18 45.4286 16.8261 45.4286 16.8261L45.2857 17.4783C45.2857 17.7391 45.4286 17.8696 45.7143 17.8696H47.8571C48.1429 17.8696 48.4286 17.6087 48.5714 17.3478L49.8571 10.0435C49.7143 9.91304 49.4286 9.65217 49.2857 9.65217ZM46 13.8261C45.7143 15 44.7143 15.913 43.2857 15.913C42.5714 15.913 42 15.6522 41.7143 15.3913C41.4286 15 41.2857 14.4783 41.2857 13.8261C41.4286 12.6522 42.5714 11.7391 43.8571 11.7391C44.5714 11.7391 45 12 45.4286 12.2609C45.8571 12.6522 46 13.3043 46 13.8261Z" fill="#263B80"/>
<path d="M84.1429 9.65217H81.8572C81.7143 9.65217 81.4286 9.78261 81.4286 9.91304L81.2857 10.5652L81.1429 10.3043C80.5714 9.65217 79.5714 9.3913 78.4286 9.3913C75.8572 9.3913 73.5714 11.2174 73.1429 13.6957C72.8572 15 73.2857 16.1739 74 16.9565C74.7143 17.7391 75.7143 18 77 18C79.1429 18 80.2857 16.8261 80.2857 16.8261L80.1429 17.4783C80.1429 17.7391 80.2857 17.8696 80.5714 17.8696H82.7143C83 17.8696 83.2857 17.6087 83.4286 17.3478L84.7143 10.0435C84.5714 9.91304 84.4286 9.65217 84.1429 9.65217ZM80.8572 13.8261C80.5714 15 79.5714 15.913 78.1429 15.913C77.4286 15.913 76.8572 15.6522 76.5714 15.3913C76.2857 15 76.1429 14.4783 76.1429 13.8261C76.2857 12.6522 77.4286 11.7391 78.7143 11.7391C79.4286 11.7391 79.8572 12 80.2857 12.2609C80.8572 12.6522 81 13.3043 80.8572 13.8261Z" fill="#139AD6"/>
<path d="M61.7143 9.65218H59.2857C59 9.65218 58.8571 9.78262 58.7143 9.91305L55.5714 14.3478L54.1429 10.1739C54 9.91305 53.8571 9.78262 53.4286 9.78262H51.1428C50.8571 9.78262 50.7143 10.0435 50.7143 10.3044L53.2857 17.2174L50.8571 20.3478C50.7143 20.6087 50.8571 21 51.1428 21H53.4286C53.7143 21 53.8571 20.8696 54 20.7391L61.8571 10.4348C62.2857 10.0435 62 9.65218 61.7143 9.65218Z" fill="#263B80"/>
<path d="M86.8571 5.86957L84.8571 17.6087C84.8571 17.8696 85 18 85.2857 18H87.2857C87.5714 18 87.8571 17.7391 88 17.4783L90 6C90 5.73913 89.8572 5.6087 89.5714 5.6087H87.2857C87.1429 5.47826 87 5.6087 86.8571 5.86957Z" fill="#139AD6"/>
<path d="M16.4286 1.56522C15.4286 0.52174 13.5714 0 11 0H3.85714C3.42857 0 3 0.391305 2.85714 0.782609L0 17.8696C0 18.2609 0.285714 18.5217 0.571429 18.5217H5L6.14286 12.1304V12.3913C6.28571 12 6.71429 11.6087 7.14286 11.6087H9.28571C13.4286 11.6087 16.5714 10.0435 17.5714 5.73913C17.5714 5.60869 17.5714 5.47826 17.5714 5.34783C17.4286 5.34783 17.4286 5.34783 17.5714 5.34783C17.7143 3.65217 17.4286 2.6087 16.4286 1.56522Z" fill="#263B80"/>
<path d="M17.4286 5.34783C17.4286 5.47827 17.4286 5.6087 17.4286 5.73914C16.4286 10.1739 13.2857 11.6087 9.14286 11.6087H7.00001C6.57143 11.6087 6.14286 12 6 12.3913L4.57143 20.3478C4.57143 20.6087 4.71429 20.8696 5.14286 20.8696H8.85715C9.28572 20.8696 9.71429 20.6087 9.71429 20.2174V20.087L10.4286 16.0435V15.7826C10.4286 15.3913 10.8571 15.1304 11.2857 15.1304H11.8571C15.4286 15.1304 18.2857 13.8261 19 9.91305C19.2857 8.34783 19.1429 6.91305 18.2857 6.00001C18.1429 5.73914 17.8571 5.47827 17.4286 5.34783Z" fill="#139AD6"/>
<path d="M16.4286 4.95652C16.2857 4.95652 16.1429 4.82609 16 4.82609C15.8571 4.82609 15.7143 4.82609 15.5714 4.69565C15 4.56522 14.4286 4.56522 13.7143 4.56522H8.14286C8 4.56522 7.85715 4.56522 7.71429 4.69565C7.42857 4.82609 7.28572 5.08696 7.28572 5.34783L6.14286 12.1304V12.3913C6.28572 12 6.71429 11.6087 7.14286 11.6087H9.28572C13.4286 11.6087 16.5714 10.0435 17.5714 5.73913C17.5714 5.60869 17.5714 5.47826 17.7143 5.34783C17.4286 5.21739 17.2857 5.08695 17 5.08695C16.5714 4.95652 16.5714 4.95652 16.4286 4.95652Z" fill="#232C65"/>
</svg>
